solid Visualization Toolkit generated SLA File
 facet normal -0.46640915557556223 -0.8845691039117809 0
  outer loop
   vertex 0.01142578199505806 -0.0067727155983448029 0.015575000084936619
   vertex -0.00052249431610107422 -0.00047271547373384237 0.015575000084936619
   vertex 0.01142578199505806 -0.0067727155983448029 -0.014424999244511127
  endloop
 endfacet
 facet normal -0.46640915557556223 -0.8845691039117809 -0
  outer loop
   vertex 0.01142578199505806 -0.0067727155983448029 -0.014424999244511127
   vertex -0.00052249431610107422 -0.00047271547373384237 0.015575000084936619
   vertex -0.00052249431610107422 -0.00047271547373384237 -0.014424999244511127
  endloop
 endfacet
 facet normal 0 -1 0
  outer loop
   vertex 0.011849954724311829 -0.0067727155983448029 0.015575000084936619
   vertex 0.01142578199505806 -0.0067727155983448029 0.015575000084936619
   vertex 0.011849954724311829 -0.0067727155983448029 -0.014424999244511127
  endloop
 endfacet
 facet normal 0 -1 0
  outer loop
   vertex 0.011849954724311829 -0.0067727155983448029 -0.014424999244511127
   vertex 0.01142578199505806 -0.0067727155983448029 0.015575000084936619
   vertex 0.01142578199505806 -0.0067727155983448029 -0.014424999244511127
  endloop
 endfacet
 facet normal 0.52429643037607276 0.8515358202065888 0
  outer loop
   vertex 0.0069775059819221497 -0.0037727155722677708 0.015575000084936619
   vertex 0.011849954724311829 -0.0067727155983448029 0.015575000084936619
   vertex 0.0069775059819221497 -0.0037727155722677708 -0.014424999244511127
  endloop
 endfacet
 facet normal 0.52429643037607276 0.8515358202065888 0
  outer loop
   vertex 0.0069775059819221497 -0.0037727155722677708 -0.014424999244511127
   vertex 0.011849954724311829 -0.0067727155983448029 0.015575000084936619
   vertex 0.011849954724311829 -0.0067727155983448029 -0.014424999244511127
  endloop
 endfacet
 facet normal 0.42756119066391202 0.90398640932154384 0
  outer loop
   vertex -0.0004224926233291626 -0.00027271581348031759 0.015575000084936619
   vertex 0.0069775059819221497 -0.0037727155722677708 0.015575000084936619
   vertex -0.0004224926233291626 -0.00027271581348031759 -0.014424999244511127
  endloop
 endfacet
 facet normal 0.42756119066391202 0.90398640932154384 0
  outer loop
   vertex -0.0004224926233291626 -0.00027271581348031759 -0.014424999244511127
   vertex 0.0069775059819221497 -0.0037727155722677708 0.015575000084936619
   vertex 0.0069775059819221497 -0.0037727155722677708 -0.014424999244511127
  endloop
 endfacet
 facet normal -0.89442385898090593 0.44722025947591482 0
  outer loop
   vertex -0.00052249431610107422 -0.00047271547373384237 0.015575000084936619
   vertex -0.0004224926233291626 -0.00027271581348031759 0.015575000084936619
   vertex -0.00052249431610107422 -0.00047271547373384237 -0.014424999244511127
  endloop
 endfacet
 facet normal -0.89442385898090593 0.44722025947591482 0
  outer loop
   vertex -0.00052249431610107422 -0.00047271547373384237 -0.014424999244511127
   vertex -0.0004224926233291626 -0.00027271581348031759 0.015575000084936619
   vertex -0.0004224926233291626 -0.00027271581348031759 -0.014424999244511127
  endloop
 endfacet
 facet normal 0 0 -1
  outer loop
   vertex -0.0004224926233291626 -0.00027271581348031759 -0.014424999244511127
   vertex 0.0069775059819221497 -0.0037727155722677708 -0.014424999244511127
   vertex -0.00052249431610107422 -0.00047271547373384237 -0.014424999244511127
  endloop
 endfacet
 facet normal -0 -0 -1
  outer loop
   vertex -0.00052249431610107422 -0.00047271547373384237 -0.014424999244511127
   vertex 0.0069775059819221497 -0.0037727155722677708 -0.014424999244511127
   vertex 0.01142578199505806 -0.0067727155983448029 -0.014424999244511127
  endloop
 endfacet
 facet normal 0 0 -1
  outer loop
   vertex 0.01142578199505806 -0.0067727155983448029 -0.014424999244511127
   vertex 0.0069775059819221497 -0.0037727155722677708 -0.014424999244511127
   vertex 0.011849954724311829 -0.0067727155983448029 -0.014424999244511127
  endloop
 endfacet
 facet normal -0 0 1
  outer loop
   vertex -0.0004224926233291626 -0.00027271581348031759 0.015575000084936619
   vertex -0.00052249431610107422 -0.00047271547373384237 0.015575000084936619
   vertex 0.0069775059819221497 -0.0037727155722677708 0.015575000084936619
  endloop
 endfacet
 facet normal 0 0 1
  outer loop
   vertex 0.0069775059819221497 -0.0037727155722677708 0.015575000084936619
   vertex -0.00052249431610107422 -0.00047271547373384237 0.015575000084936619
   vertex 0.01142578199505806 -0.0067727155983448029 0.015575000084936619
  endloop
 endfacet
 facet normal 0 -0 1
  outer loop
   vertex 0.0069775059819221497 -0.0037727155722677708 0.015575000084936619
   vertex 0.01142578199505806 -0.0067727155983448029 0.015575000084936619
   vertex 0.011849954724311829 -0.0067727155983448029 0.015575000084936619
  endloop
 endfacet
endsolid
