solid Visualization Toolkit generated SLA File
 facet normal 0.5646733894715541 0.82531446323368562 0
  outer loop
   vertex 0.00067750364542007446 0.0014272840926423669 0.015575000084936619
   vertex 0.00087907165288925171 0.0012893729144707322 0.015575000084936619
   vertex 0.00067750364542007446 0.0014272840926423669 -0.014424999244511127
  endloop
 endfacet
 facet normal 0.5646733894715541 0.82531446323368562 0
  outer loop
   vertex 0.00067750364542007446 0.0014272840926423669 -0.014424999244511127
   vertex 0.00087907165288925171 0.0012893729144707322 0.015575000084936619
   vertex 0.00087907165288925171 0.0012893729144707322 -0.014424999244511127
  endloop
 endfacet
 facet normal -0.82530802529753577 0.56468279890526352 0
  outer loop
   vertex -0.00062249228358268738 -0.00047271547373384237 0.015575000084936619
   vertex 0.00067750364542007446 0.0014272840926423669 0.015575000084936619
   vertex -0.00062249228358268738 -0.00047271547373384237 -0.014424999244511127
  endloop
 endfacet
 facet normal -0.82530802529753577 0.56468279890526352 0
  outer loop
   vertex -0.00062249228358268738 -0.00047271547373384237 -0.014424999244511127
   vertex 0.00067750364542007446 0.0014272840926423669 0.015575000084936619
   vertex 0.00067750364542007446 0.0014272840926423669 -0.014424999244511127
  endloop
 endfacet
 facet normal -0.47916599625943523 -0.8777243006939609 0
  outer loop
   vertex -0.00034296512603759766 -0.00062531454022973776 0.015575000084936619
   vertex -0.00062249228358268738 -0.00047271547373384237 0.015575000084936619
   vertex -0.00034296512603759766 -0.00062531454022973776 -0.014424999244511127
  endloop
 endfacet
 facet normal -0.47916599625943523 -0.8777243006939609 -0
  outer loop
   vertex -0.00034296512603759766 -0.00062531454022973776 -0.014424999244511127
   vertex -0.00062249228358268738 -0.00047271547373384237 0.015575000084936619
   vertex -0.00062249228358268738 -0.00047271547373384237 -0.014424999244511127
  endloop
 endfacet
 facet normal 0.84294300382415843 -0.53800287388071155 0
  outer loop
   vertex 0.00087907165288925171 0.0012893729144707322 0.015575000084936619
   vertex -0.00034296512603759766 -0.00062531454022973776 0.015575000084936619
   vertex 0.00087907165288925171 0.0012893729144707322 -0.014424999244511127
  endloop
 endfacet
 facet normal 0.84294300382415843 -0.53800287388071155 0
  outer loop
   vertex 0.00087907165288925171 0.0012893729144707322 -0.014424999244511127
   vertex -0.00034296512603759766 -0.00062531454022973776 0.015575000084936619
   vertex -0.00034296512603759766 -0.00062531454022973776 -0.014424999244511127
  endloop
 endfacet
 facet normal 0 0 -1
  outer loop
   vertex 0.00087907165288925171 0.0012893729144707322 -0.014424999244511127
   vertex -0.00034296512603759766 -0.00062531454022973776 -0.014424999244511127
   vertex 0.00067750364542007446 0.0014272840926423669 -0.014424999244511127
  endloop
 endfacet
 facet normal 0 0 -1
  outer loop
   vertex 0.00067750364542007446 0.0014272840926423669 -0.014424999244511127
   vertex -0.00034296512603759766 -0.00062531454022973776 -0.014424999244511127
   vertex -0.00062249228358268738 -0.00047271547373384237 -0.014424999244511127
  endloop
 endfacet
 facet normal 0 0 1
  outer loop
   vertex 0.00087907165288925171 0.0012893729144707322 0.015575000084936619
   vertex 0.00067750364542007446 0.0014272840926423669 0.015575000084936619
   vertex -0.00034296512603759766 -0.00062531454022973776 0.015575000084936619
  endloop
 endfacet
 facet normal 0 0 1
  outer loop
   vertex -0.00034296512603759766 -0.00062531454022973776 0.015575000084936619
   vertex 0.00067750364542007446 0.0014272840926423669 0.015575000084936619
   vertex -0.00062249228358268738 -0.00047271547373384237 0.015575000084936619
  endloop
 endfacet
endsolid
