solid Visualization Toolkit generated SLA File
 facet normal -0.19076119939554637 -0.98163647283766542 0
  outer loop
   vertex -0.0064121154136955738 -0.0075225299224257469 0.0031349998898804188
   vertex -0.0086564170196652412 -0.0070863952860236168 -4.3368086899420177e-19
   vertex -0.0064121154136955738 -0.0075225299224257469 -0.0031349998898804188
  endloop
 endfacet
 facet normal 0 1 -0
  outer loop
   vertex 0.004461746197193861 0.013172484934329987 -0.0016250452026724815
   vertex 0.0033865938894450665 0.013172484934329987 -0.0031349998898804188
   vertex 0.002669427078217268 0.013172484934329987 -0.00048305420204997063
  endloop
 endfacet
 facet normal 0 1 0
  outer loop
   vertex 0.0033865938894450665 0.013172484934329987 0.0031349998898804188
   vertex 0.0053513147868216038 0.013172484934329987 0.0031349998898804188
   vertex 0.0043139043264091015 0.013172484934329987 0.0015343609265983105
  endloop
 endfacet
 facet normal 0 1 0
  outer loop
   vertex -0.00054285360965877771 0.013172484934329987 0.0031349998898804188
   vertex 0.0014218644937500358 0.013172484934329987 0.0031349998898804188
   vertex 0.00055851356592029333 0.013172484934329987 0.0012778708478435874
  endloop
 endfacet
 facet normal 0 1 0
  outer loop
   vertex 0.017139675095677376 0.013172484934329987 -4.3368086899420177e-19
   vertex 0.015174942091107368 0.013172484934329987 -4.3368086899420177e-19
   vertex 0.016157304868102074 0.013172484934329987 0.0015674999449402094
  endloop
 endfacet
 facet normal 0 1 0
  outer loop
   vertex 0.017139675095677376 0.013172484934329987 -4.3368086899420177e-19
   vertex 0.019104393199086189 0.013172484934329987 -4.3368086899420177e-19
   vertex 0.018122034147381783 0.013172484934329987 -0.001567500177770853
  endloop
 endfacet
 facet normal -0.63652256724440226 0.77087663587435296 0.024253528642978649
  outer loop
   vertex -0.013057318516075611 0.0096703367307782173 0.0031349998898804188
   vertex -0.010049623437225819 0.012153828516602516 0.0031349998898804188
   vertex -0.010859583504498005 0.011682302691042423 -0.0031349998898804188
  endloop
 endfacet
 facet normal 0 1 0
  outer loop
   vertex 0.024998573586344719 0.013172484934329987 -4.3368086899420177e-19
   vertex 0.026963293552398682 0.013172484934329987 -4.3368086899420177e-19
   vertex 0.025980934500694275 0.013172484934329987 -0.001567500177770853
  endloop
 endfacet
 facet normal -0.42189944898763704 -0.88892420634489644 -0.17836650559458792
  outer loop
   vertex -0.012538817711174488 -0.004614686593413353 -0.0031349998898804188
   vertex -0.0064121154136955738 -0.0075225299224257469 -0.0031349998898804188
   vertex -0.0086564170196652412 -0.0070863952860236168 -4.3368086899420177e-19
  endloop
 endfacet
 facet normal 1 0 0
  outer loop
   vertex 0.056434173136949539 -0.0075225299224257469 -0.0031349998898804188
   vertex 0.056434173136949539 -0.0045200558379292488 -4.3368086899420177e-19
   vertex 0.056434173136949539 -0.0075225299224257469 0.0031349998898804188
  endloop
 endfacet
 facet normal 0 1 0
  outer loop
   vertex 0.024998573586344719 0.013172484934329987 -4.3368086899420177e-19
   vertex 0.02303384430706501 0.013172484934329987 -4.3368086899420177e-19
   vertex 0.024016203358769417 0.013172484934329987 0.0015674999449402094
  endloop
 endfacet
 facet normal -0.40154607504642648 0.91568120498908212 -0.016990598710820884
  outer loop
   vertex -0.010859583504498005 0.011682302691042423 -0.0031349998898804188
   vertex -0.010049623437225819 0.012153828516602516 0.0031349998898804188
   vertex -0.0084209451451897621 0.012809868901968002 -4.3368086899420177e-19
  endloop
 endfacet
 facet normal 0 1 0
  outer loop
   vertex 0.0073136338032782078 0.013172484934329987 -1.8069986253976822e-06
   vertex 0.0082983728498220444 0.013172484934329987 -0.0015676910988986492
   vertex 0.0063345641829073429 0.013172484934329987 -0.0015722140669822693
  endloop
 endfacet
 facet normal 1 -0 0
  outer loop
   vertex 0.056434173136949539 -0.0023487755097448826 0.0031349998898804188
   vertex 0.056434173136949539 -0.0075225299224257469 0.0031349998898804188
   vertex 0.056434173136949539 -0.0045200558379292488 -4.3368086899420177e-19
  endloop
 endfacet
 facet normal -0.72937353556639306 0.68314423539053648 -0.036444468277899239
  outer loop
   vertex -0.013922234065830708 0.0084123983979225159 -0.0031349998898804188
   vertex -0.013057318516075611 0.0096703367307782173 0.0031349998898804188
   vertex -0.010859583504498005 0.011682302691042423 -0.0031349998898804188
  endloop
 endfacet
 facet normal -0.89725186648951272 0.44009145490431784 0.035476744513644992
  outer loop
   vertex -0.013922234065830708 0.0084123983979225159 -0.0031349998898804188
   vertex -0.015083943493664265 0.0055384840816259384 0.0031349998898804188
   vertex -0.013057318516075611 0.0096703367307782173 0.0031349998898804188
  endloop
 endfacet
 facet normal -0.49856195194178859 -0.86447697519194744 -0.064152470248423438
  outer loop
   vertex -0.012538817711174488 -0.004614686593413353 -0.0031349998898804188
   vertex -0.0086564170196652412 -0.0070863952860236168 -4.3368086899420177e-19
   vertex -0.0102022560313344 -0.0064275246113538742 0.0031349998898804188
  endloop
 endfacet
 facet normal -0.95082691888516135 0.30772500474593689 -0.035121101598099926
  outer loop
   vertex -0.015353676863014698 0.0039894417859613895 -0.0031349998898804188
   vertex -0.015083943493664265 0.0055384840816259384 0.0031349998898804188
   vertex -0.013922234065830708 0.0084123983979225159 -0.0031349998898804188
  endloop
 endfacet
 facet normal -0.99884528785357285 0.033140098902952421 0.034782535523101205
  outer loop
   vertex -0.015353676863014698 0.0039894417859613895 -0.0031349998898804188
   vertex -0.015239608474075794 0.00084672885714098811 0.0031349998898804188
   vertex -0.015083943493664265 0.0055384840816259384 0.0031349998898804188
  endloop
 endfacet
 facet normal -0 1 0
  outer loop
   vertex 0.0073136338032782078 0.013172484934329987 -1.8069986253976822e-06
   vertex 0.0063289948739111423 0.013172484934329987 0.0015644648810848594
   vertex 0.0082982238382101059 0.013172484934329987 0.0015673708403483033
  endloop
 endfacet
 facet normal 0 -1 0
  outer loop
   vertex 0.032866813242435455 -0.0075225299224257469 0.0031349998898804188
   vertex 0.025011023506522179 -0.0075225299224257469 0.0031349998898804188
   vertex 0.02893892303109169 -0.0075225299224257469 -4.3368086899420177e-19
  endloop
 endfacet
 facet normal 0 -1 0
  outer loop
   vertex 0.017155243083834648 -0.0075225299224257469 -0.0031349998898804188
   vertex 0.025011023506522179 -0.0075225299224257469 -0.0031349998898804188
   vertex 0.021083133295178413 -0.0075225299224257469 -4.3368086899420177e-19
  endloop
 endfacet
 facet normal 0 -1 -0
  outer loop
   vertex 0.0092994552105665207 -0.0075225299224257469 -0.0031349998898804188
   vertex 0.0092994552105665207 -0.0075225299224257469 0.0031349998898804188
   vertex 0.0053715654648840427 -0.0075225299224257469 -4.3368086899420177e-19
  endloop
 endfacet
 facet normal 0 1 0
  outer loop
   vertex 0.04957396537065506 0.013172484934329987 -0.0014392691664397717
   vertex 0.049123149365186691 0.013172484934329987 0.00065275887027382851
   vertex 0.051688592880964279 0.013172484934329987 -0.00070316903293132782
  endloop
 endfacet
 facet normal 0 1 0
  outer loop
   vertex 0.02303384430706501 0.013172484934329987 -4.3368086899420177e-19
   vertex 0.024016203358769417 0.013172484934329987 -0.001567500177770853
   vertex 0.022051483392715454 0.013172484934329987 -0.001567500177770853
  endloop
 endfacet
 facet normal 1 0 0
  outer loop
   vertex 0.056434173136949539 -0.0023487755097448826 -0.0031349998898804188
   vertex 0.056434173136949539 0.00025263414136134088 -4.3368086899420177e-19
   vertex 0.056434173136949539 -0.0045200558379292488 -4.3368086899420177e-19
  endloop
 endfacet
 facet normal -0 1 0
  outer loop
   vertex 0.02303384430706501 0.013172484934329987 -4.3368086899420177e-19
   vertex 0.022051483392715454 0.013172484934329987 0.0015674999449402094
   vertex 0.024016203358769417 0.013172484934329987 0.0015674999449402094
  endloop
 endfacet
 facet normal 0 -1 0
  outer loop
   vertex 0.040722601115703583 -0.0075225299224257469 0.0031349998898804188
   vertex 0.040722601115703583 -0.0075225299224257469 -0.0031349998898804188
   vertex 0.044650495052337646 -0.0075225299224257469 -4.3368086899420177e-19
  endloop
 endfacet
 facet normal 0 1 0
  outer loop
   vertex 0.026963293552398682 0.013172484934329987 -4.3368086899420177e-19
   vertex 0.027945663779973984 0.013172484934329987 -0.001567500177770853
   vertex 0.025980934500694275 0.013172484934329987 -0.001567500177770853
  endloop
 endfacet
 facet normal 1 0 -0
  outer loop
   vertex 0.056434173136949539 -0.0023487755097448826 0.0031349998898804188
   vertex 0.056434173136949539 0.00025263414136134088 -4.3368086899420177e-19
   vertex 0.056434173136949539 0.0028249819297343493 0.0031349998898804188
  endloop
 endfacet
 facet normal 1 0 0
  outer loop
   vertex 0.056434173136949539 0.0028249819297343493 -0.0031349998898804188
   vertex 0.056434173136949539 0.0079987337812781334 -0.0031349998898804188
   vertex 0.056434173136949539 0.0053973211906850338 -4.3368086899420177e-19
  endloop
 endfacet
 facet normal 1 0 0
  outer loop
   vertex 0.056434173136949539 0.0079987337812781334 -0.0031349998898804188
   vertex 0.056434173136949539 0.010170012712478638 -4.3368086899420177e-19
   vertex 0.056434173136949539 0.0053973211906850338 -4.3368086899420177e-19
  endloop
 endfacet
 facet normal 0 -1 0
  outer loop
   vertex 0.032866813242435455 -0.0075225299224257469 0.0031349998898804188
   vertex 0.032866813242435455 -0.0075225299224257469 -0.0031349998898804188
   vertex 0.036794703453779221 -0.0075225299224257469 -4.3368086899420177e-19
  endloop
 endfacet
 facet normal -0 1 0
  outer loop
   vertex 0.026963293552398682 0.013172484934329987 -4.3368086899420177e-19
   vertex 0.025980934500694275 0.013172484934329987 0.0015674999449402094
   vertex 0.027945654466748238 0.013172484934329987 0.0015674999449402094
  endloop
 endfacet
 facet normal 0 1 0
  outer loop
   vertex 0.011245494708418846 0.013172484934329987 -4.3368086899420177e-19
   vertex 0.012227853760123253 0.013172484934329987 -0.001567500177770853
   vertex 0.010263124480843544 0.013172484934329987 -0.0015675029717385769
  endloop
 endfacet
 facet normal -0 1 0
  outer loop
   vertex 0.011245494708418846 0.013172484934329987 -4.3368086899420177e-19
   vertex 0.010263135656714439 0.013172484934329987 0.0015674969181418419
   vertex 0.012227853760123253 0.013172484934329987 0.0015674999449402094
  endloop
 endfacet
 facet normal 0 -1 -0
  outer loop
   vertex 0.017155243083834648 -0.0075225299224257469 -0.0031349998898804188
   vertex 0.017155243083834648 -0.0075225299224257469 0.0031349998898804188
   vertex 0.013227345421910286 -0.0075225299224257469 -4.3368086899420177e-19
  endloop
 endfacet
 facet normal 1 0 0
  outer loop
   vertex 0.056434173136949539 -0.0075225299224257469 -0.0031349998898804188
   vertex 0.056434173136949539 -0.0023487755097448826 -0.0031349998898804188
   vertex 0.056434173136949539 -0.0045200558379292488 -4.3368086899420177e-19
  endloop
 endfacet
 facet normal 0 1 0
  outer loop
   vertex 0.038751643151044846 0.013172484934329987 -4.3368086899420177e-19
   vertex 0.039734013378620148 0.013172484934329987 -0.0015674983151257038
   vertex 0.037769284099340439 0.013172484934329987 -0.001567500177770853
  endloop
 endfacet
 facet normal -0 1 0
  outer loop
   vertex 0.038751643151044846 0.013172484934329987 -4.3368086899420177e-19
   vertex 0.037769284099340439 0.013172484934329987 0.0015674999449402094
   vertex 0.039734013378620148 0.013172484934329987 0.001567500876262784
  endloop
 endfacet
 facet normal 1 0 0
  outer loop
   vertex 0.056434173136949539 0.0079987337812781334 0.0031349998898804188
   vertex 0.056434173136949539 0.0053973211906850338 -4.3368086899420177e-19
   vertex 0.056434173136949539 0.010170012712478638 -4.3368086899420177e-19
  endloop
 endfacet
 facet normal 0 -1 -0
  outer loop
   vertex 0.04857838898897171 -0.0075225299224257469 -0.0031349998898804188
   vertex 0.04857838898897171 -0.0075225299224257469 0.0031349998898804188
   vertex 0.044650495052337646 -0.0075225299224257469 -4.3368086899420177e-19
  endloop
 endfacet
 facet normal -0 1 0
  outer loop
   vertex 0.04268120601773262 0.013172484934329987 1.9790604710578918e-07
   vertex 0.041698742657899857 0.013172484934329987 0.0015675248578190804
   vertex 0.043663620948791504 0.013172484934329987 0.0015681788790971041
  endloop
 endfacet
 facet normal 0 -1 0
  outer loop
   vertex 0.0014436648925766349 -0.0075225299224257469 0.0031349998898804188
   vertex 0.0014436648925766349 -0.0075225299224257469 -0.0031349998898804188
   vertex 0.0053715654648840427 -0.0075225299224257469 -4.3368086899420177e-19
  endloop
 endfacet
 facet normal 0 -1 0
  outer loop
   vertex 0.025011023506522179 -0.0075225299224257469 -0.0031349998898804188
   vertex 0.032866813242435455 -0.0075225299224257469 -0.0031349998898804188
   vertex 0.02893892303109169 -0.0075225299224257469 -4.3368086899420177e-19
  endloop
 endfacet
 facet normal 1 0 0
  outer loop
   vertex 0.056434173136949539 0.0028249819297343493 0.0031349998898804188
   vertex 0.056434173136949539 0.00025263414136134088 -4.3368086899420177e-19
   vertex 0.056434173136949539 0.0053973211906850338 -4.3368086899420177e-19
  endloop
 endfacet
 facet normal 0 -1 -0
  outer loop
   vertex 0.040722601115703583 -0.0075225299224257469 -0.0031349998898804188
   vertex 0.040722601115703583 -0.0075225299224257469 0.0031349998898804188
   vertex 0.036794703453779221 -0.0075225299224257469 -4.3368086899420177e-19
  endloop
 endfacet
 facet normal -0.99380548194393659 -0.10553818708565228 -0.034818890344949491
  outer loop
   vertex -0.014858466573059559 -0.00067373004276305437 -0.0031349998898804188
   vertex -0.015239608474075794 0.00084672885714098811 0.0031349998898804188
   vertex -0.015353676863014698 0.0039894417859613895 -0.0031349998898804188
  endloop
 endfacet
 facet normal 0 -1 0
  outer loop
   vertex 0.0092994552105665207 -0.0075225299224257469 0.0031349998898804188
   vertex 0.0092994552105665207 -0.0075225299224257469 -0.0031349998898804188
   vertex 0.013227345421910286 -0.0075225299224257469 -4.3368086899420177e-19
  endloop
 endfacet
 facet normal 0 1 0
  outer loop
   vertex 0.04268120601773262 0.013172484934329987 1.9790604710578918e-07
   vertex 0.043663762509822845 0.013172484934329987 -0.0015670182183384895
   vertex 0.041698742657899857 0.013172484934329987 -0.0015674810856580734
  endloop
 endfacet
 facet normal 0 1 0
  outer loop
   vertex 0.01713966391980648 0.013172484934329987 0.0031349998898804188
   vertex 0.018122034147381783 0.013172484934329987 0.0015674999449402094
   vertex 0.016157304868102074 0.013172484934329987 0.0015674999449402094
  endloop
 endfacet
 facet normal -0 1 0
  outer loop
   vertex -0.0036019650287926197 0.013172484934329987 0.00090322480536997318
   vertex -0.005641475785523653 0.013172484934329987 0.00094897882081568241
   vertex -0.0044723046012222767 0.013172484934329987 0.0031349998898804188
  endloop
 endfacet
 facet normal -0 1 0
  outer loop
   vertex 0.032857473939657211 0.013172484934329987 -0.0031349998898804188
   vertex 0.031875103712081909 0.013172484934329987 -0.001567500177770853
   vertex 0.033839832991361618 0.013172484934329987 -0.001567500177770853
  endloop
 endfacet
 facet normal 0 -1 0
  outer loop
   vertex 0.056434173136949539 -0.0075225299224257469 0.0031349998898804188
   vertex 0.04857838898897171 -0.0075225299224257469 0.0031349998898804188
   vertex 0.052506279200315475 -0.0075225299224257469 -4.3368086899420177e-19
  endloop
 endfacet
 facet normal 0 -1 0
  outer loop
   vertex 0.04857838898897171 -0.0075225299224257469 -0.0031349998898804188
   vertex 0.056434173136949539 -0.0075225299224257469 -0.0031349998898804188
   vertex 0.052506279200315475 -0.0075225299224257469 -4.3368086899420177e-19
  endloop
 endfacet
 facet normal 0 1 0
  outer loop
   vertex 0.032857473939657211 0.013172484934329987 0.0031349998898804188
   vertex 0.033839832991361618 0.013172484934329987 0.0015674999449402094
   vertex 0.031875103712081909 0.013172484934329987 0.0015674999449402094
  endloop
 endfacet
 facet normal -0.92533518984867746 -0.37750377754448972 0.035294254027423942
  outer loop
   vertex -0.014858466573059559 -0.00067373004276305437 -0.0031349998898804188
   vertex -0.013492156751453876 -0.0034366152249276638 0.0031349998898804188
   vertex -0.015239608474075794 0.00084672885714098811 0.0031349998898804188
  endloop
 endfacet
 facet normal 0 1 0
  outer loop
   vertex 0.019104393199086189 0.013172484934329987 -4.3368086899420177e-19
   vertex 0.020086754113435745 0.013172484934329987 -0.001567500177770853
   vertex 0.018122034147381783 0.013172484934329987 -0.001567500177770853
  endloop
 endfacet
 facet normal -0.86124719704563801 -0.50693050145375629 -0.035703393072300471
  outer loop
   vertex -0.012538817711174488 -0.004614686593413353 -0.0031349998898804188
   vertex -0.013492156751453876 -0.0034366152249276638 0.0031349998898804188
   vertex -0.014858466573059559 -0.00067373004276305437 -0.0031349998898804188
  endloop
 endfacet
 facet normal -0.67223026353584481 -0.73943090289848323 0.036720738353994718
  outer loop
   vertex -0.012538817711174488 -0.004614686593413353 -0.0031349998898804188
   vertex -0.0102022560313344 -0.0064275246113538742 0.0031349998898804188
   vertex -0.013492156751453876 -0.0034366152249276638 0.0031349998898804188
  endloop
 endfacet
 facet normal -0 1 0
  outer loop
   vertex 0.030892744660377502 0.013172484934329987 -4.3368086899420177e-19
   vertex 0.029910383746027946 0.013172484934329987 0.0015674999449402094
   vertex 0.031875103712081909 0.013172484934329987 0.0015674999449402094
  endloop
 endfacet
 facet normal -0 1 0
  outer loop
   vertex 0.01713966391980648 0.013172484934329987 -0.0031349998898804188
   vertex 0.016157304868102074 0.013172484934329987 -0.001567500177770853
   vertex 0.018122034147381783 0.013172484934329987 -0.001567500177770853
  endloop
 endfacet
 facet normal -0 1 0
  outer loop
   vertex 0.015174942091107368 0.013172484934329987 -4.3368086899420177e-19
   vertex 0.014192583039402962 0.013172484934329987 0.0015674999449402094
   vertex 0.016157304868102074 0.013172484934329987 0.0015674999449402094
  endloop
 endfacet
 facet normal 0 1 0
  outer loop
   vertex 0.0014218644937500358 0.013172484934329987 0.0031349998898804188
   vertex 0.0024385969154536724 0.013172484934329987 0.001639542868360877
   vertex 0.00055851356592029333 0.013172484934329987 0.0012778708478435874
  endloop
 endfacet
 facet normal 0 1 0
  outer loop
   vertex 0.034822195768356323 0.013172484934329987 -4.3368086899420177e-19
   vertex 0.03580455482006073 0.013172484934329987 -0.001567500177770853
   vertex 0.033839832991361618 0.013172484934329987 -0.001567500177770853
  endloop
 endfacet
 facet normal -0 1 0
  outer loop
   vertex 0.048575270920991898 0.013172484934329987 -0.0031349998898804188
   vertex 0.047647077590227127 0.013172484934329987 -0.0014888648875057697
   vertex 0.04957396537065506 0.013172484934329987 -0.0014392691664397717
  endloop
 endfacet
 facet normal -0 1 0
  outer loop
   vertex 0.046660497784614563 0.013172484934329987 7.2520924732089043e-05
   vertex 0.045628815889358521 0.013172484934329987 0.00157979188952595
   vertex 0.047503519803285599 0.013172484934329987 0.0016813948750495911
  endloop
 endfacet
 facet normal 0 1 -0
  outer loop
   vertex 0.055762659758329391 0.013172484934329987 0.00080306991003453732
   vertex 0.055515777319669724 0.013172484934329987 -0.0011405069380998611
   vertex 0.053588937968015671 0.013172484934329987 0.0008547930046916008
  endloop
 endfacet
 facet normal 0 1 0
  outer loop
   vertex 0.02892802469432354 0.013172484934329987 0.0031349998898804188
   vertex 0.029910383746027946 0.013172484934329987 0.0015674999449402094
   vertex 0.027945654466748238 0.013172484934329987 0.0015674999449402094
  endloop
 endfacet
 facet normal 0 1 0
  outer loop
   vertex 0.01321021281182766 0.013172484934329987 0.0031349998898804188
   vertex 0.014192583039402962 0.013172484934329987 0.0015674999449402094
   vertex 0.012227853760123253 0.013172484934329987 0.0015674999449402094
  endloop
 endfacet
 facet normal -0 1 0
  outer loop
   vertex 0.036786925047636032 0.013172484934329987 -0.0031349998898804188
   vertex 0.03580455482006073 0.013172484934329987 -0.001567500177770853
   vertex 0.037769284099340439 0.013172484934329987 -0.001567500177770853
  endloop
 endfacet
 facet normal 0 1 0
  outer loop
   vertex -0.0036019650287926197 0.013172484934329987 0.00090322480536997318
   vertex -0.0015183953801169991 0.013172484934329987 0.00074530183337628841
   vertex -0.0033866730518639088 0.013172484934329987 -0.0011632051318883896
  endloop
 endfacet
 facet normal 0 1 0
  outer loop
   vertex 0.046660497784614563 0.013172484934329987 7.2520924732089043e-05
   vertex 0.047647077590227127 0.013172484934329987 -0.0014888648875057697
   vertex 0.04563392698764801 0.013172484934329987 -0.0015590940602123737
  endloop
 endfacet
 facet normal 1 0 0
  outer loop
   vertex 0.056434173136949539 0.0028249819297343493 -0.0031349998898804188
   vertex 0.056434173136949539 0.0053973211906850338 -4.3368086899420177e-19
   vertex 0.056434173136949539 0.00025263414136134088 -4.3368086899420177e-19
  endloop
 endfacet
 facet normal 1 0 0
  outer loop
   vertex 0.056434173136949539 0.0028249819297343493 -0.0031349998898804188
   vertex 0.056434173136949539 0.00025263414136134088 -4.3368086899420177e-19
   vertex 0.056434173136949539 -0.0023487755097448826 -0.0031349998898804188
  endloop
 endfacet
 facet normal -0.27697204521644897 -0.95868301999172478 0.064910348544463564
  outer loop
   vertex -0.0064121154136955738 -0.0075225299224257469 0.0031349998898804188
   vertex -0.0102022560313344 -0.0064275246113538742 0.0031349998898804188
   vertex -0.0086564170196652412 -0.0070863952860236168 -4.3368086899420177e-19
  endloop
 endfacet
 facet normal 1 -0 0
  outer loop
   vertex 0.056434173136949539 0.0079987337812781334 0.0031349998898804188
   vertex 0.056434173136949539 0.0028249819297343493 0.0031349998898804188
   vertex 0.056434173136949539 0.0053973211906850338 -4.3368086899420177e-19
  endloop
 endfacet
 facet normal 0 -1 0
  outer loop
   vertex -0.0064121154136955738 -0.0075225299224257469 -0.0031349998898804188
   vertex 0.0014436648925766349 -0.0075225299224257469 -0.0031349998898804188
   vertex -0.0024842252023518085 -0.0075225299224257469 -4.3368086899420177e-19
  endloop
 endfacet
 facet normal 1 0 0
  outer loop
   vertex 0.056434173136949539 -0.0023487755097448826 0.0031349998898804188
   vertex 0.056434173136949539 -0.0045200558379292488 -4.3368086899420177e-19
   vertex 0.056434173136949539 0.00025263414136134088 -4.3368086899420177e-19
  endloop
 endfacet
 facet normal 0 1 0
  outer loop
   vertex 0.002669427078217268 0.013172484934329987 -0.00048305420204997063
   vertex 0.0024385969154536724 0.013172484934329987 0.001639542868360877
   vertex 0.0043139043264091015 0.013172484934329987 0.0015343609265983105
  endloop
 endfacet
 facet normal -0 1 0
  outer loop
   vertex 0.034822195768356323 0.013172484934329987 -4.3368086899420177e-19
   vertex 0.033839832991361618 0.013172484934329987 0.0015674999449402094
   vertex 0.03580455482006073 0.013172484934329987 0.0015674999449402094
  endloop
 endfacet
 facet normal -0 1 0
  outer loop
   vertex 0.019104393199086189 0.013172484934329987 -4.3368086899420177e-19
   vertex 0.018122034147381783 0.013172484934329987 0.0015674999449402094
   vertex 0.020086754113435745 0.013172484934329987 0.0015674999449402094
  endloop
 endfacet
 facet normal -0 1 0
  outer loop
   vertex 0.01321021281182766 0.013172484934329987 -0.0031349998898804188
   vertex 0.012227853760123253 0.013172484934329987 -0.001567500177770853
   vertex 0.014192583039402962 0.013172484934329987 -0.001567500177770853
  endloop
 endfacet
 facet normal -0 1 0
  outer loop
   vertex 0.0092807654291391373 0.013172484934329987 -0.0031349998898804188
   vertex 0.0082983728498220444 0.013172484934329987 -0.0015676910988986492
   vertex 0.010263124480843544 0.013172484934329987 -0.0015675029717385769
  endloop
 endfacet
 facet normal 0 1 0
  outer loop
   vertex 0.040716372430324554 0.013172484934329987 0.0031349998898804188
   vertex 0.041698742657899857 0.013172484934329987 0.0015675248578190804
   vertex 0.039734013378620148 0.013172484934329987 0.001567500876262784
  endloop
 endfacet
 facet normal -0 1 0
  outer loop
   vertex 0.040716372430324554 0.013172484934329987 -0.0031349998898804188
   vertex 0.039734013378620148 0.013172484934329987 -0.0015674983151257038
   vertex 0.041698742657899857 0.013172484934329987 -0.0015674810856580734
  endloop
 endfacet
 facet normal -0 1 0
  outer loop
   vertex 0.021069113165140152 0.013172484934329987 -0.0031349998898804188
   vertex 0.020086754113435745 0.013172484934329987 -0.001567500177770853
   vertex 0.022051483392715454 0.013172484934329987 -0.001567500177770853
  endloop
 endfacet
 facet normal -0 1 0
  outer loop
   vertex 0.02892802469432354 0.013172484934329987 -0.0031349998898804188
   vertex 0.027945663779973984 0.013172484934329987 -0.001567500177770853
   vertex 0.029910383746027946 0.013172484934329987 -0.001567500177770853
  endloop
 endfacet
 facet normal -0 1 0
  outer loop
   vertex 0.024998573586344719 0.013172484934329987 -0.0031349998898804188
   vertex 0.024016203358769417 0.013172484934329987 -0.001567500177770853
   vertex 0.025980934500694275 0.013172484934329987 -0.001567500177770853
  endloop
 endfacet
 facet normal 1 0 0
  outer loop
   vertex 0.056434173136949539 0.013172484934329987 -0.0031349998898804188
   vertex 0.056434173136949539 0.013172484934329987 0.0031349998898804188
   vertex 0.056434173136949539 0.010170012712478638 -4.3368086899420177e-19
  endloop
 endfacet
 facet normal 0 1 0
  outer loop
   vertex 0.044645823538303375 0.013172484934329987 0.0031349998898804188
   vertex 0.045628815889358521 0.013172484934329987 0.00157979188952595
   vertex 0.043663620948791504 0.013172484934329987 0.0015681788790971041
  endloop
 endfacet
 facet normal -0 1 0
  outer loop
   vertex 0.044645823538303375 0.013172484934329987 -0.0031349998898804188
   vertex 0.043663762509822845 0.013172484934329987 -0.0015670182183384895
   vertex 0.04563392698764801 0.013172484934329987 -0.0015590940602123737
  endloop
 endfacet
 facet normal 0 1 0
  outer loop
   vertex -0.0053530563600361347 0.013172484934329987 -0.00094403605908155441
   vertex -0.0033866730518639088 0.013172484934329987 -0.0011632051318883896
   vertex -0.0044723046012222767 0.013172484934329987 -0.0031349998898804188
  endloop
 endfacet
 facet normal 0 1 0
  outer loop
   vertex 0.036786925047636032 0.013172484934329987 0.0031349998898804188
   vertex 0.037769284099340439 0.013172484934329987 0.0015674999449402094
   vertex 0.03580455482006073 0.013172484934329987 0.0015674999449402094
  endloop
 endfacet
 facet normal -0 1 0
  outer loop
   vertex 0.0053513147868216038 0.013172484934329987 -0.0031349998898804188
   vertex 0.004461746197193861 0.013172484934329987 -0.0016250452026724815
   vertex 0.0063345641829073429 0.013172484934329987 -0.0015722140669822693
  endloop
 endfacet
 facet normal 0 1 0
  outer loop
   vertex 0.0053513147868216038 0.013172484934329987 0.0031349998898804188
   vertex 0.0063289948739111423 0.013172484934329987 0.0015644648810848594
   vertex 0.0043139043264091015 0.013172484934329987 0.0015343609265983105
  endloop
 endfacet
 facet normal 0 1 0
  outer loop
   vertex 0.0092807654291391373 0.013172484934329987 0.0031349998898804188
   vertex 0.010263135656714439 0.013172484934329987 0.0015674969181418419
   vertex 0.0082982238382101059 0.013172484934329987 0.0015673708403483033
  endloop
 endfacet
 facet normal 0 1 0
  outer loop
   vertex 0.015174942091107368 0.013172484934329987 -4.3368086899420177e-19
   vertex 0.016157304868102074 0.013172484934329987 -0.001567500177770853
   vertex 0.014192583039402962 0.013172484934329987 -0.001567500177770853
  endloop
 endfacet
 facet normal 0 1 0
  outer loop
   vertex 0.052504725754261017 0.013172484934329987 0.0031349998898804188
   vertex 0.053588937968015671 0.013172484934329987 0.0008547930046916008
   vertex 0.051320340484380722 0.013172484934329987 0.0013366868952289224
  endloop
 endfacet
 facet normal 0 1 0
  outer loop
   vertex 0.021069113165140152 0.013172484934329987 0.0031349998898804188
   vertex 0.022051483392715454 0.013172484934329987 0.0015674999449402094
   vertex 0.020086754113435745 0.013172484934329987 0.0015674999449402094
  endloop
 endfacet
 facet normal 0 1 0
  outer loop
   vertex 0.024998573586344719 0.013172484934329987 0.0031349998898804188
   vertex 0.025980934500694275 0.013172484934329987 0.0015674999449402094
   vertex 0.024016203358769417 0.013172484934329987 0.0015674999449402094
  endloop
 endfacet
 facet normal 0 1 0
  outer loop
   vertex 0.030892744660377502 0.013172484934329987 -4.3368086899420177e-19
   vertex 0.031875103712081909 0.013172484934329987 -0.001567500177770853
   vertex 0.029910383746027946 0.013172484934329987 -0.001567500177770853
  endloop
 endfacet
 facet normal -0.27089730845001908 0.96071724520657542 0.06030773613081683
  outer loop
   vertex -0.0064370338805019855 0.013172484934329987 0.0031349998898804188
   vertex -0.0084209451451897621 0.012809868901968002 -4.3368086899420177e-19
   vertex -0.010049623437225819 0.012153828516602516 0.0031349998898804188
  endloop
 endfacet
 facet normal 0 1 -0
  outer loop
   vertex 0.053588937968015671 0.013172484934329987 0.0008547930046916008
   vertex 0.053576108068227768 0.013172484934329987 -0.0013875961303710938
   vertex 0.051688592880964279 0.013172484934329987 -0.00070316903293132782
  endloop
 endfacet
 facet normal -0.31795539720163268 0.94362520334382594 -0.0920643307946961
  outer loop
   vertex -0.010859583504498005 0.011682302691042423 -0.0031349998898804188
   vertex -0.0084209451451897621 0.012809868901968002 -4.3368086899420177e-19
   vertex -0.0064370338805019855 0.013172484934329987 -0.0031349998898804188
  endloop
 endfacet
 facet normal 0 1 0
  outer loop
   vertex -0.0044723046012222767 0.013172484934329987 -0.0031349998898804188
   vertex -0.0033866730518639088 0.013172484934329987 -0.0011632051318883896
   vertex -0.0025075864978134632 0.013172484934329987 -0.0031349998898804188
  endloop
 endfacet
 facet normal -0.17979965919246887 0.98370324923437757 0
  outer loop
   vertex -0.0064370338805019855 0.013172484934329987 0.0031349998898804188
   vertex -0.0064370338805019855 0.013172484934329987 -0.0031349998898804188
   vertex -0.0084209451451897621 0.012809868901968002 -4.3368086899420177e-19
  endloop
 endfacet
 facet normal -0 1 0
  outer loop
   vertex 0.056434173136949539 0.013172484934329987 -0.0031349998898804188
   vertex 0.055515777319669724 0.013172484934329987 -0.0011405069380998611
   vertex 0.055762659758329391 0.013172484934329987 0.00080306991003453732
  endloop
 endfacet
 facet normal 0 1 -0
  outer loop
   vertex 0.050539996474981308 0.013172484934329987 0.0031349998898804188
   vertex 0.049123149365186691 0.013172484934329987 0.00065275887027382851
   vertex 0.048575270920991898 0.013172484934329987 0.0031349998898804188
  endloop
 endfacet
 facet normal 1 0 0
  outer loop
   vertex 0.056434173136949539 0.013172484934329987 -0.0031349998898804188
   vertex 0.056434173136949539 0.010170012712478638 -4.3368086899420177e-19
   vertex 0.056434173136949539 0.0079987337812781334 -0.0031349998898804188
  endloop
 endfacet
 facet normal 1 0 -0
  outer loop
   vertex 0.056434173136949539 0.0079987337812781334 0.0031349998898804188
   vertex 0.056434173136949539 0.010170012712478638 -4.3368086899420177e-19
   vertex 0.056434173136949539 0.013172484934329987 0.0031349998898804188
  endloop
 endfacet
 facet normal 0 -1 0
  outer loop
   vertex 0.0014436648925766349 -0.0075225299224257469 0.0031349998898804188
   vertex -0.0064121154136955738 -0.0075225299224257469 0.0031349998898804188
   vertex -0.0024842252023518085 -0.0075225299224257469 -4.3368086899420177e-19
  endloop
 endfacet
 facet normal 0 -1 0
  outer loop
   vertex 0.025011023506522179 -0.0075225299224257469 0.0031349998898804188
   vertex 0.017155243083834648 -0.0075225299224257469 0.0031349998898804188
   vertex 0.021083133295178413 -0.0075225299224257469 -4.3368086899420177e-19
  endloop
 endfacet
 facet normal 0 -1 0
  outer loop
   vertex 0.0014436648925766349 -0.0075225299224257469 0.0031349998898804188
   vertex 0.0053715654648840427 -0.0075225299224257469 -4.3368086899420177e-19
   vertex 0.0092994552105665207 -0.0075225299224257469 0.0031349998898804188
  endloop
 endfacet
 facet normal 0 -1 -0
  outer loop
   vertex 0.0092994552105665207 -0.0075225299224257469 -0.0031349998898804188
   vertex 0.0053715654648840427 -0.0075225299224257469 -4.3368086899420177e-19
   vertex 0.0014436648925766349 -0.0075225299224257469 -0.0031349998898804188
  endloop
 endfacet
 facet normal 0 -1 0
  outer loop
   vertex 0.0092994552105665207 -0.0075225299224257469 0.0031349998898804188
   vertex 0.013227345421910286 -0.0075225299224257469 -4.3368086899420177e-19
   vertex 0.017155243083834648 -0.0075225299224257469 0.0031349998898804188
  endloop
 endfacet
 facet normal 0 -1 -0
  outer loop
   vertex 0.017155243083834648 -0.0075225299224257469 -0.0031349998898804188
   vertex 0.013227345421910286 -0.0075225299224257469 -4.3368086899420177e-19
   vertex 0.0092994552105665207 -0.0075225299224257469 -0.0031349998898804188
  endloop
 endfacet
 facet normal -0 -1 0
  outer loop
   vertex 0.025011023506522179 -0.0075225299224257469 -0.0031349998898804188
   vertex 0.02893892303109169 -0.0075225299224257469 -4.3368086899420177e-19
   vertex 0.025011023506522179 -0.0075225299224257469 0.0031349998898804188
  endloop
 endfacet
 facet normal 0 -1 0
  outer loop
   vertex 0.032866813242435455 -0.0075225299224257469 0.0031349998898804188
   vertex 0.02893892303109169 -0.0075225299224257469 -4.3368086899420177e-19
   vertex 0.032866813242435455 -0.0075225299224257469 -0.0031349998898804188
  endloop
 endfacet
 facet normal 0 -1 0
  outer loop
   vertex 0.025011023506522179 -0.0075225299224257469 0.0031349998898804188
   vertex 0.021083133295178413 -0.0075225299224257469 -4.3368086899420177e-19
   vertex 0.025011023506522179 -0.0075225299224257469 -0.0031349998898804188
  endloop
 endfacet
 facet normal -0 -1 0
  outer loop
   vertex 0.017155243083834648 -0.0075225299224257469 -0.0031349998898804188
   vertex 0.021083133295178413 -0.0075225299224257469 -4.3368086899420177e-19
   vertex 0.017155243083834648 -0.0075225299224257469 0.0031349998898804188
  endloop
 endfacet
 facet normal 0 -1 -0
  outer loop
   vertex 0.04857838898897171 -0.0075225299224257469 -0.0031349998898804188
   vertex 0.044650495052337646 -0.0075225299224257469 -4.3368086899420177e-19
   vertex 0.040722601115703583 -0.0075225299224257469 -0.0031349998898804188
  endloop
 endfacet
 facet normal 0 -1 0
  outer loop
   vertex 0.040722601115703583 -0.0075225299224257469 0.0031349998898804188
   vertex 0.044650495052337646 -0.0075225299224257469 -4.3368086899420177e-19
   vertex 0.04857838898897171 -0.0075225299224257469 0.0031349998898804188
  endloop
 endfacet
 facet normal -0 -1 0
  outer loop
   vertex 0.04857838898897171 -0.0075225299224257469 -0.0031349998898804188
   vertex 0.052506279200315475 -0.0075225299224257469 -4.3368086899420177e-19
   vertex 0.04857838898897171 -0.0075225299224257469 0.0031349998898804188
  endloop
 endfacet
 facet normal 0 -1 0
  outer loop
   vertex 0.056434173136949539 -0.0075225299224257469 0.0031349998898804188
   vertex 0.052506279200315475 -0.0075225299224257469 -4.3368086899420177e-19
   vertex 0.056434173136949539 -0.0075225299224257469 -0.0031349998898804188
  endloop
 endfacet
 facet normal 0 -1 -0
  outer loop
   vertex 0.040722601115703583 -0.0075225299224257469 -0.0031349998898804188
   vertex 0.036794703453779221 -0.0075225299224257469 -4.3368086899420177e-19
   vertex 0.032866813242435455 -0.0075225299224257469 -0.0031349998898804188
  endloop
 endfacet
 facet normal 0 -1 0
  outer loop
   vertex 0.032866813242435455 -0.0075225299224257469 0.0031349998898804188
   vertex 0.036794703453779221 -0.0075225299224257469 -4.3368086899420177e-19
   vertex 0.040722601115703583 -0.0075225299224257469 0.0031349998898804188
  endloop
 endfacet
 facet normal 0 -1 0
  outer loop
   vertex 0.0014436648925766349 -0.0075225299224257469 0.0031349998898804188
   vertex -0.0024842252023518085 -0.0075225299224257469 -4.3368086899420177e-19
   vertex 0.0014436648925766349 -0.0075225299224257469 -0.0031349998898804188
  endloop
 endfacet
 facet normal -0 -1 0
  outer loop
   vertex -0.0064121154136955738 -0.0075225299224257469 -0.0031349998898804188
   vertex -0.0024842252023518085 -0.0075225299224257469 -4.3368086899420177e-19
   vertex -0.0064121154136955738 -0.0075225299224257469 0.0031349998898804188
  endloop
 endfacet
 facet normal 0 1 0
  outer loop
   vertex 0.036786925047636032 0.013172484934329987 -4.3368086899420177e-19
   vertex 0.034822195768356323 0.013172484934329987 -4.3368086899420177e-19
   vertex 0.03580455482006073 0.013172484934329987 0.0015674999449402094
  endloop
 endfacet
 facet normal 0 1 0
  outer loop
   vertex 0.036786925047636032 0.013172484934329987 -4.3368086899420177e-19
   vertex 0.038751643151044846 0.013172484934329987 -4.3368086899420177e-19
   vertex 0.037769284099340439 0.013172484934329987 -0.001567500177770853
  endloop
 endfacet
 facet normal 0 1 0
  outer loop
   vertex 0.032857473939657211 0.013172484934329987 -4.3368086899420177e-19
   vertex 0.030892744660377502 0.013172484934329987 -4.3368086899420177e-19
   vertex 0.031875103712081909 0.013172484934329987 0.0015674999449402094
  endloop
 endfacet
 facet normal 0 1 0
  outer loop
   vertex 0.032857473939657211 0.013172484934329987 -4.3368086899420177e-19
   vertex 0.034822195768356323 0.013172484934329987 -4.3368086899420177e-19
   vertex 0.033839832991361618 0.013172484934329987 -0.001567500177770853
  endloop
 endfacet
 facet normal 0 1 0
  outer loop
   vertex 0.002669427078217268 0.013172484934329987 -0.00048305420204997063
   vertex -0.00055641366634517908 0.013172484934329987 -0.0012910063378512859
   vertex 0.00055851356592029333 0.013172484934329987 0.0012778708478435874
  endloop
 endfacet
 facet normal 0 1 0
  outer loop
   vertex 0.046610545367002487 0.013172484934329987 0.0031349998898804188
   vertex 0.048575270920991898 0.013172484934329987 0.0031349998898804188
   vertex 0.047503519803285599 0.013172484934329987 0.0016813948750495911
  endloop
 endfacet
 facet normal 0 1 0
  outer loop
   vertex 0.050539996474981308 0.013172484934329987 -0.0031349998898804188
   vertex 0.048575270920991898 0.013172484934329987 -0.0031349998898804188
   vertex 0.04957396537065506 0.013172484934329987 -0.0014392691664397717
  endloop
 endfacet
 facet normal 0 1 0
  outer loop
   vertex 0.046610545367002487 0.013172484934329987 -0.0031349998898804188
   vertex 0.044645823538303375 0.013172484934329987 -0.0031349998898804188
   vertex 0.04563392698764801 0.013172484934329987 -0.0015590940602123737
  endloop
 endfacet
 facet normal 0 1 0
  outer loop
   vertex 0.019104393199086189 0.013172484934329987 -0.0031349998898804188
   vertex 0.01713966391980648 0.013172484934329987 -0.0031349998898804188
   vertex 0.018122034147381783 0.013172484934329987 -0.001567500177770853
  endloop
 endfacet
 facet normal 0 1 0
  outer loop
   vertex 0.015174942091107368 0.013172484934329987 -0.0031349998898804188
   vertex 0.01321021281182766 0.013172484934329987 -0.0031349998898804188
   vertex 0.014192583039402962 0.013172484934329987 -0.001567500177770853
  endloop
 endfacet
 facet normal 0 1 0
  outer loop
   vertex 0.030892744660377502 0.013172484934329987 -0.0031349998898804188
   vertex 0.02892802469432354 0.013172484934329987 -0.0031349998898804188
   vertex 0.029910383746027946 0.013172484934329987 -0.001567500177770853
  endloop
 endfacet
 facet normal 0 1 0
  outer loop
   vertex 0.034822195768356323 0.013172484934329987 -0.0031349998898804188
   vertex 0.032857473939657211 0.013172484934329987 -0.0031349998898804188
   vertex 0.033839832991361618 0.013172484934329987 -0.001567500177770853
  endloop
 endfacet
 facet normal 0 1 0
  outer loop
   vertex 0.019104393199086189 0.013172484934329987 0.0031349998898804188
   vertex 0.021069113165140152 0.013172484934329987 0.0031349998898804188
   vertex 0.020086754113435745 0.013172484934329987 0.0015674999449402094
  endloop
 endfacet
 facet normal 0 1 0
  outer loop
   vertex 0.015174942091107368 0.013172484934329987 0.0031349998898804188
   vertex 0.01713966391980648 0.013172484934329987 0.0031349998898804188
   vertex 0.016157304868102074 0.013172484934329987 0.0015674999449402094
  endloop
 endfacet
 facet normal 0 1 0
  outer loop
   vertex 0.030892744660377502 0.013172484934329987 0.0031349998898804188
   vertex 0.032857473939657211 0.013172484934329987 0.0031349998898804188
   vertex 0.031875103712081909 0.013172484934329987 0.0015674999449402094
  endloop
 endfacet
 facet normal 0 1 0
  outer loop
   vertex 0.034822195768356323 0.013172484934329987 0.0031349998898804188
   vertex 0.036786925047636032 0.013172484934329987 0.0031349998898804188
   vertex 0.03580455482006073 0.013172484934329987 0.0015674999449402094
  endloop
 endfacet
 facet normal 0 1 0
  outer loop
   vertex 0.038751643151044846 0.013172484934329987 0.0031349998898804188
   vertex 0.040716372430324554 0.013172484934329987 0.0031349998898804188
   vertex 0.039734013378620148 0.013172484934329987 0.001567500876262784
  endloop
 endfacet
 facet normal 0 1 0
  outer loop
   vertex 0.042681097984313965 0.013172484934329987 0.0031349998898804188
   vertex 0.044645823538303375 0.013172484934329987 0.0031349998898804188
   vertex 0.043663620948791504 0.013172484934329987 0.0015681788790971041
  endloop
 endfacet
 facet normal 0 1 0
  outer loop
   vertex 0.038751643151044846 0.013172484934329987 -0.0031349998898804188
   vertex 0.036786925047636032 0.013172484934329987 -0.0031349998898804188
   vertex 0.037769284099340439 0.013172484934329987 -0.001567500177770853
  endloop
 endfacet
 facet normal 0 1 0
  outer loop
   vertex 0.042681097984313965 0.013172484934329987 -0.0031349998898804188
   vertex 0.040716372430324554 0.013172484934329987 -0.0031349998898804188
   vertex 0.041698742657899857 0.013172484934329987 -0.0015674810856580734
  endloop
 endfacet
 facet normal 0 1 0
  outer loop
   vertex 0.011245494708418846 0.013172484934329987 0.0031349998898804188
   vertex 0.01321021281182766 0.013172484934329987 0.0031349998898804188
   vertex 0.012227853760123253 0.013172484934329987 0.0015674999449402094
  endloop
 endfacet
 facet normal 0 1 0
  outer loop
   vertex 0.011245494708418846 0.013172484934329987 -0.0031349998898804188
   vertex 0.0092807654291391373 0.013172484934329987 -0.0031349998898804188
   vertex 0.010263124480843544 0.013172484934329987 -0.0015675029717385769
  endloop
 endfacet
 facet normal 0 1 0
  outer loop
   vertex 0.026963293552398682 0.013172484934329987 0.0031349998898804188
   vertex 0.02892802469432354 0.013172484934329987 0.0031349998898804188
   vertex 0.027945654466748238 0.013172484934329987 0.0015674999449402094
  endloop
 endfacet
 facet normal 0 1 0
  outer loop
   vertex 0.02303384430706501 0.013172484934329987 0.0031349998898804188
   vertex 0.024998573586344719 0.013172484934329987 0.0031349998898804188
   vertex 0.024016203358769417 0.013172484934329987 0.0015674999449402094
  endloop
 endfacet
 facet normal 0 1 0
  outer loop
   vertex 0.026963293552398682 0.013172484934329987 -0.0031349998898804188
   vertex 0.024998573586344719 0.013172484934329987 -0.0031349998898804188
   vertex 0.025980934500694275 0.013172484934329987 -0.001567500177770853
  endloop
 endfacet
 facet normal 0 1 0
  outer loop
   vertex 0.02303384430706501 0.013172484934329987 -0.0031349998898804188
   vertex 0.021069113165140152 0.013172484934329987 -0.0031349998898804188
   vertex 0.022051483392715454 0.013172484934329987 -0.001567500177770853
  endloop
 endfacet
 facet normal 0 1 0
  outer loop
   vertex 0.054469447582960129 0.013172484934329987 -0.0031349998898804188
   vertex 0.052504725754261017 0.013172484934329987 -0.0031349998898804188
   vertex 0.053576108068227768 0.013172484934329987 -0.0013875961303710938
  endloop
 endfacet
 facet normal 0 1 0
  outer loop
   vertex 0.054469447582960129 0.013172484934329987 0.0031349998898804188
   vertex 0.056434173136949539 0.013172484934329987 0.0031349998898804188
   vertex 0.055762659758329391 0.013172484934329987 0.00080306991003453732
  endloop
 endfacet
 facet normal 0 1 0
  outer loop
   vertex 0.02892802469432354 0.013172484934329987 -4.3368086899420177e-19
   vertex 0.030892744660377502 0.013172484934329987 -4.3368086899420177e-19
   vertex 0.029910383746027946 0.013172484934329987 -0.001567500177770853
  endloop
 endfacet
 facet normal 0 1 0
  outer loop
   vertex 0.02892802469432354 0.013172484934329987 -4.3368086899420177e-19
   vertex 0.026963293552398682 0.013172484934329987 -4.3368086899420177e-19
   vertex 0.027945654466748238 0.013172484934329987 0.0015674999449402094
  endloop
 endfacet
 facet normal 0 1 0
  outer loop
   vertex 0.0092807132750749588 0.013172484934329987 -5.2154064178466797e-08
   vertex 0.0073136338032782078 0.013172484934329987 -1.8069986253976822e-06
   vertex 0.0082982238382101059 0.013172484934329987 0.0015673708403483033
  endloop
 endfacet
 facet normal 0 1 0
  outer loop
   vertex 0.0092807132750749588 0.013172484934329987 -5.2154064178466797e-08
   vertex 0.011245494708418846 0.013172484934329987 -4.3368086899420177e-19
   vertex 0.010263124480843544 0.013172484934329987 -0.0015675029717385769
  endloop
 endfacet
 facet normal 0 1 0
  outer loop
   vertex 0.040716376155614853 0.013172484934329987 6.9849193096160889e-09
   vertex 0.04268120601773262 0.013172484934329987 1.9790604710578918e-07
   vertex 0.041698742657899857 0.013172484934329987 -0.0015674810856580734
  endloop
 endfacet
 facet normal 0 1 0
  outer loop
   vertex 0.040716376155614853 0.013172484934329987 6.9849193096160889e-09
   vertex 0.038751643151044846 0.013172484934329987 -4.3368086899420177e-19
   vertex 0.039734013378620148 0.013172484934329987 0.001567500876262784
  endloop
 endfacet
 facet normal 0 1 0
  outer loop
   vertex 0.01321021281182766 0.013172484934329987 -4.3368086899420177e-19
   vertex 0.015174942091107368 0.013172484934329987 -4.3368086899420177e-19
   vertex 0.014192583039402962 0.013172484934329987 -0.001567500177770853
  endloop
 endfacet
 facet normal 0 1 0
  outer loop
   vertex 0.01321021281182766 0.013172484934329987 -4.3368086899420177e-19
   vertex 0.011245494708418846 0.013172484934329987 -4.3368086899420177e-19
   vertex 0.012227853760123253 0.013172484934329987 0.0015674999449402094
  endloop
 endfacet
 facet normal 0 1 0
  outer loop
   vertex 0.021069113165140152 0.013172484934329987 -4.3368086899420177e-19
   vertex 0.019104393199086189 0.013172484934329987 -4.3368086899420177e-19
   vertex 0.020086754113435745 0.013172484934329987 0.0015674999449402094
  endloop
 endfacet
 facet normal 0 1 0
  outer loop
   vertex 0.021069113165140152 0.013172484934329987 -4.3368086899420177e-19
   vertex 0.02303384430706501 0.013172484934329987 -4.3368086899420177e-19
   vertex 0.022051483392715454 0.013172484934329987 -0.001567500177770853
  endloop
 endfacet
 facet normal 0 1 0
  outer loop
   vertex 0.0073160440661013126 0.013172484934329987 0.0031349998898804188
   vertex 0.0092807654291391373 0.013172484934329987 0.0031349998898804188
   vertex 0.0082982238382101059 0.013172484934329987 0.0015673708403483033
  endloop
 endfacet
 facet normal 0 1 0
  outer loop
   vertex 0.0073160440661013126 0.013172484934329987 -0.0031349998898804188
   vertex 0.0053513147868216038 0.013172484934329987 -0.0031349998898804188
   vertex 0.0063345641829073429 0.013172484934329987 -0.0015722140669822693
  endloop
 endfacet
 facet normal 0 1 0
  outer loop
   vertex -0.0044723046012222767 0.013172484934329987 -0.0031349998898804188
   vertex -0.0064370338805019855 0.013172484934329987 -0.0031349998898804188
   vertex -0.0053530563600361347 0.013172484934329987 -0.00094403605908155441
  endloop
 endfacet
 facet normal 0 1 0
  outer loop
   vertex -0.0044723046012222767 0.013172484934329987 0.0031349998898804188
   vertex -0.0025075864978134632 0.013172484934329987 0.0031349998898804188
   vertex -0.0036019650287926197 0.013172484934329987 0.00090322480536997318
  endloop
 endfacet
 facet normal 0 1 0
  outer loop
   vertex 0.044648826122283936 0.013172484934329987 4.7108624130487442e-06
   vertex 0.046660497784614563 0.013172484934329987 7.2520924732089043e-05
   vertex 0.04563392698764801 0.013172484934329987 -0.0015590940602123737
  endloop
 endfacet
 facet normal 0 1 0
  outer loop
   vertex 0.044648826122283936 0.013172484934329987 4.7108624130487442e-06
   vertex 0.04268120601773262 0.013172484934329987 1.9790604710578918e-07
   vertex 0.043663620948791504 0.013172484934329987 0.0015681788790971041
  endloop
 endfacet
 facet normal 0 1 0
  outer loop
   vertex 0.005297644529491663 0.013172484934329987 -3.8997037336230278e-05
   vertex 0.002669427078217268 0.013172484934329987 -0.00048305420204997063
   vertex 0.0043139043264091015 0.013172484934329987 0.0015343609265983105
  endloop
 endfacet
 facet normal 0 1 0
  outer loop
   vertex 0.005297644529491663 0.013172484934329987 -3.8997037336230278e-05
   vertex 0.0073136338032782078 0.013172484934329987 -1.8069986253976822e-06
   vertex 0.0063345641829073429 0.013172484934329987 -0.0015722140669822693
  endloop
 endfacet
 facet normal 0 1 0
  outer loop
   vertex -0.0015183953801169991 0.013172484934329987 0.00074530183337628841
   vertex 0.00055851356592029333 0.013172484934329987 0.0012778708478435874
   vertex -0.00055641366634517908 0.013172484934329987 -0.0012910063378512859
  endloop
 endfacet
 facet normal 0 1 0
  outer loop
   vertex 0.049123149365186691 0.013172484934329987 0.00065275887027382851
   vertex 0.046660497784614563 0.013172484934329987 7.2520924732089043e-05
   vertex 0.047503519803285599 0.013172484934329987 0.0016813948750495911
  endloop
 endfacet
 facet normal 0 1 0
  outer loop
   vertex 0.051320340484380722 0.013172484934329987 0.0013366868952289224
   vertex 0.051688592880964279 0.013172484934329987 -0.00070316903293132782
   vertex 0.049123149365186691 0.013172484934329987 0.00065275887027382851
  endloop
 endfacet
 facet normal 0 1 0
  outer loop
   vertex 0.054469447582960129 0.013172484934329987 -0.0031349998898804188
   vertex 0.055515777319669724 0.013172484934329987 -0.0011405069380998611
   vertex 0.056434173136949539 0.013172484934329987 -0.0031349998898804188
  endloop
 endfacet
 facet normal 0 1 0
  outer loop
   vertex 0.053576108068227768 0.013172484934329987 -0.0013875961303710938
   vertex 0.053588937968015671 0.013172484934329987 0.0008547930046916008
   vertex 0.055515777319669724 0.013172484934329987 -0.0011405069380998611
  endloop
 endfacet
 facet normal 0 1 0
  outer loop
   vertex 0.054469447582960129 0.013172484934329987 0.0031349998898804188
   vertex 0.055762659758329391 0.013172484934329987 0.00080306991003453732
   vertex 0.053588937968015671 0.013172484934329987 0.0008547930046916008
  endloop
 endfacet
 facet normal 0 1 0
  outer loop
   vertex -0.0064370338805019855 0.013172484934329987 -0.0031349998898804188
   vertex -0.0064370338805019855 0.013172484934329987 0.0031349998898804188
   vertex -0.005641475785523653 0.013172484934329987 0.00094897882081568241
  endloop
 endfacet
 facet normal 0 1 -0
  outer loop
   vertex -0.00055641366634517908 0.013172484934329987 -0.0012910063378512859
   vertex -0.0025075864978134632 0.013172484934329987 -0.0031349998898804188
   vertex -0.0033866730518639088 0.013172484934329987 -0.0011632051318883896
  endloop
 endfacet
 facet normal 0 1 -0
  outer loop
   vertex -0.00054285360965877771 0.013172484934329987 0.0031349998898804188
   vertex -0.0015183953801169991 0.013172484934329987 0.00074530183337628841
   vertex -0.0025075864978134632 0.013172484934329987 0.0031349998898804188
  endloop
 endfacet
 facet normal 0 1 0
  outer loop
   vertex -0.00054285360965877771 0.013172484934329987 -0.0031349998898804188
   vertex -0.0025075864978134632 0.013172484934329987 -0.0031349998898804188
   vertex -0.00055641366634517908 0.013172484934329987 -0.0012910063378512859
  endloop
 endfacet
 facet normal -0 1 0
  outer loop
   vertex -0.00055641366634517908 0.013172484934329987 -0.0012910063378512859
   vertex -0.0033866730518639088 0.013172484934329987 -0.0011632051318883896
   vertex -0.0015183953801169991 0.013172484934329987 0.00074530183337628841
  endloop
 endfacet
 facet normal 0 1 0
  outer loop
   vertex 0.051688592880964279 0.013172484934329987 -0.00070316903293132782
   vertex 0.051320340484380722 0.013172484934329987 0.0013366868952289224
   vertex 0.053588937968015671 0.013172484934329987 0.0008547930046916008
  endloop
 endfacet
 facet normal 0 1 0
  outer loop
   vertex 0.050539996474981308 0.013172484934329987 -0.0031349998898804188
   vertex 0.051688592880964279 0.013172484934329987 -0.00070316903293132782
   vertex 0.052504725754261017 0.013172484934329987 -0.0031349998898804188
  endloop
 endfacet
 facet normal 0 1 -0
  outer loop
   vertex 0.0033865938894450665 0.013172484934329987 0.0031349998898804188
   vertex 0.0024385969154536724 0.013172484934329987 0.001639542868360877
   vertex 0.0014218644937500358 0.013172484934329987 0.0031349998898804188
  endloop
 endfacet
 facet normal 0 1 0
  outer loop
   vertex 0.0014218644937500358 0.013172484934329987 -0.0031349998898804188
   vertex 0.002669427078217268 0.013172484934329987 -0.00048305420204997063
   vertex 0.0033865938894450665 0.013172484934329987 -0.0031349998898804188
  endloop
 endfacet
 facet normal 0 1 -0
  outer loop
   vertex 0.0014218644937500358 0.013172484934329987 -0.0031349998898804188
   vertex -0.00054285360965877771 0.013172484934329987 -0.0031349998898804188
   vertex -0.00055641366634517908 0.013172484934329987 -0.0012910063378512859
  endloop
 endfacet
 facet normal 0 1 0
  outer loop
   vertex 0.046610545367002487 0.013172484934329987 0.0031349998898804188
   vertex 0.047503519803285599 0.013172484934329987 0.0016813948750495911
   vertex 0.045628815889358521 0.013172484934329987 0.00157979188952595
  endloop
 endfacet
 facet normal 0 1 0
  outer loop
   vertex 0.047503519803285599 0.013172484934329987 0.0016813948750495911
   vertex 0.048575270920991898 0.013172484934329987 0.0031349998898804188
   vertex 0.049123149365186691 0.013172484934329987 0.00065275887027382851
  endloop
 endfacet
 facet normal 0 1 0
  outer loop
   vertex 0.046610545367002487 0.013172484934329987 -0.0031349998898804188
   vertex 0.047647077590227127 0.013172484934329987 -0.0014888648875057697
   vertex 0.048575270920991898 0.013172484934329987 -0.0031349998898804188
  endloop
 endfacet
 facet normal 0 1 -0
  outer loop
   vertex 0.049123149365186691 0.013172484934329987 0.00065275887027382851
   vertex 0.047647077590227127 0.013172484934329987 -0.0014888648875057697
   vertex 0.046660497784614563 0.013172484934329987 7.2520924732089043e-05
  endloop
 endfacet
 facet normal 0 1 -0
  outer loop
   vertex 0.044648826122283936 0.013172484934329987 4.7108624130487442e-06
   vertex 0.043663762509822845 0.013172484934329987 -0.0015670182183384895
   vertex 0.04268120601773262 0.013172484934329987 1.9790604710578918e-07
  endloop
 endfacet
 facet normal 0 1 0
  outer loop
   vertex 0.042681097984313965 0.013172484934329987 -0.0031349998898804188
   vertex 0.043663762509822845 0.013172484934329987 -0.0015670182183384895
   vertex 0.044645823538303375 0.013172484934329987 -0.0031349998898804188
  endloop
 endfacet
 facet normal 0 1 0
  outer loop
   vertex 0.042681097984313965 0.013172484934329987 0.0031349998898804188
   vertex 0.043663620948791504 0.013172484934329987 0.0015681788790971041
   vertex 0.041698742657899857 0.013172484934329987 0.0015675248578190804
  endloop
 endfacet
 facet normal -0 1 0
  outer loop
   vertex 0.044648826122283936 0.013172484934329987 4.7108624130487442e-06
   vertex 0.043663620948791504 0.013172484934329987 0.0015681788790971041
   vertex 0.045628815889358521 0.013172484934329987 0.00157979188952595
  endloop
 endfacet
 facet normal -0 1 0
  outer loop
   vertex 0.0073160440661013126 0.013172484934329987 -0.0031349998898804188
   vertex 0.0063345641829073429 0.013172484934329987 -0.0015722140669822693
   vertex 0.0082983728498220444 0.013172484934329987 -0.0015676910988986492
  endloop
 endfacet
 facet normal 0 1 0
  outer loop
   vertex 0.005297644529491663 0.013172484934329987 -3.8997037336230278e-05
   vertex 0.0063345641829073429 0.013172484934329987 -0.0015722140669822693
   vertex 0.004461746197193861 0.013172484934329987 -0.0016250452026724815
  endloop
 endfacet
 facet normal 0 1 0
  outer loop
   vertex 0.005297644529491663 0.013172484934329987 -3.8997037336230278e-05
   vertex 0.0063289948739111423 0.013172484934329987 0.0015644648810848594
   vertex 0.0073136338032782078 0.013172484934329987 -1.8069986253976822e-06
  endloop
 endfacet
 facet normal 0 1 -0
  outer loop
   vertex 0.0073160440661013126 0.013172484934329987 0.0031349998898804188
   vertex 0.0063289948739111423 0.013172484934329987 0.0015644648810848594
   vertex 0.0053513147868216038 0.013172484934329987 0.0031349998898804188
  endloop
 endfacet
 facet normal 0 1 0
  outer loop
   vertex 0.015174942091107368 0.013172484934329987 -0.0031349998898804188
   vertex 0.016157304868102074 0.013172484934329987 -0.001567500177770853
   vertex 0.01713966391980648 0.013172484934329987 -0.0031349998898804188
  endloop
 endfacet
 facet normal 0 1 -0
  outer loop
   vertex 0.017139675095677376 0.013172484934329987 -4.3368086899420177e-19
   vertex 0.016157304868102074 0.013172484934329987 -0.001567500177770853
   vertex 0.015174942091107368 0.013172484934329987 -4.3368086899420177e-19
  endloop
 endfacet
 facet normal 0 1 0
  outer loop
   vertex 0.017139675095677376 0.013172484934329987 -4.3368086899420177e-19
   vertex 0.018122034147381783 0.013172484934329987 -0.001567500177770853
   vertex 0.016157304868102074 0.013172484934329987 -0.001567500177770853
  endloop
 endfacet
 facet normal -0 1 0
  outer loop
   vertex 0.019104393199086189 0.013172484934329987 -0.0031349998898804188
   vertex 0.018122034147381783 0.013172484934329987 -0.001567500177770853
   vertex 0.020086754113435745 0.013172484934329987 -0.001567500177770853
  endloop
 endfacet
 facet normal -0 1 0
  outer loop
   vertex 0.017139675095677376 0.013172484934329987 -4.3368086899420177e-19
   vertex 0.016157304868102074 0.013172484934329987 0.0015674999449402094
   vertex 0.018122034147381783 0.013172484934329987 0.0015674999449402094
  endloop
 endfacet
 facet normal 0 1 0
  outer loop
   vertex 0.015174942091107368 0.013172484934329987 0.0031349998898804188
   vertex 0.016157304868102074 0.013172484934329987 0.0015674999449402094
   vertex 0.014192583039402962 0.013172484934329987 0.0015674999449402094
  endloop
 endfacet
 facet normal 0 1 -0
  outer loop
   vertex 0.019104393199086189 0.013172484934329987 0.0031349998898804188
   vertex 0.018122034147381783 0.013172484934329987 0.0015674999449402094
   vertex 0.01713966391980648 0.013172484934329987 0.0031349998898804188
  endloop
 endfacet
 facet normal 0 1 0
  outer loop
   vertex 0.017139675095677376 0.013172484934329987 -4.3368086899420177e-19
   vertex 0.018122034147381783 0.013172484934329987 0.0015674999449402094
   vertex 0.019104393199086189 0.013172484934329987 -4.3368086899420177e-19
  endloop
 endfacet
 facet normal 0 1 0
  outer loop
   vertex 0.0092807132750749588 0.013172484934329987 -5.2154064178466797e-08
   vertex 0.010263135656714439 0.013172484934329987 0.0015674969181418419
   vertex 0.011245494708418846 0.013172484934329987 -4.3368086899420177e-19
  endloop
 endfacet
 facet normal 0 1 -0
  outer loop
   vertex 0.011245494708418846 0.013172484934329987 0.0031349998898804188
   vertex 0.010263135656714439 0.013172484934329987 0.0015674969181418419
   vertex 0.0092807654291391373 0.013172484934329987 0.0031349998898804188
  endloop
 endfacet
 facet normal -0 1 0
  outer loop
   vertex 0.011245494708418846 0.013172484934329987 -0.0031349998898804188
   vertex 0.010263124480843544 0.013172484934329987 -0.0015675029717385769
   vertex 0.012227853760123253 0.013172484934329987 -0.001567500177770853
  endloop
 endfacet
 facet normal 0 1 0
  outer loop
   vertex 0.0092807132750749588 0.013172484934329987 -5.2154064178466797e-08
   vertex 0.010263124480843544 0.013172484934329987 -0.0015675029717385769
   vertex 0.0082983728498220444 0.013172484934329987 -0.0015676910988986492
  endloop
 endfacet
 facet normal -0 1 0
  outer loop
   vertex 0.024998573586344719 0.013172484934329987 -4.3368086899420177e-19
   vertex 0.024016203358769417 0.013172484934329987 0.0015674999449402094
   vertex 0.025980934500694275 0.013172484934329987 0.0015674999449402094
  endloop
 endfacet
 facet normal 0 1 0
  outer loop
   vertex 0.02303384430706501 0.013172484934329987 0.0031349998898804188
   vertex 0.024016203358769417 0.013172484934329987 0.0015674999449402094
   vertex 0.022051483392715454 0.013172484934329987 0.0015674999449402094
  endloop
 endfacet
 facet normal 0 1 0
  outer loop
   vertex 0.024998573586344719 0.013172484934329987 -4.3368086899420177e-19
   vertex 0.025980934500694275 0.013172484934329987 0.0015674999449402094
   vertex 0.026963293552398682 0.013172484934329987 -4.3368086899420177e-19
  endloop
 endfacet
 facet normal 0 1 -0
  outer loop
   vertex 0.026963293552398682 0.013172484934329987 0.0031349998898804188
   vertex 0.025980934500694275 0.013172484934329987 0.0015674999449402094
   vertex 0.024998573586344719 0.013172484934329987 0.0031349998898804188
  endloop
 endfacet
 facet normal 0 1 -0
  outer loop
   vertex 0.024998573586344719 0.013172484934329987 -4.3368086899420177e-19
   vertex 0.024016203358769417 0.013172484934329987 -0.001567500177770853
   vertex 0.02303384430706501 0.013172484934329987 -4.3368086899420177e-19
  endloop
 endfacet
 facet normal 0 1 0
  outer loop
   vertex 0.02303384430706501 0.013172484934329987 -0.0031349998898804188
   vertex 0.024016203358769417 0.013172484934329987 -0.001567500177770853
   vertex 0.024998573586344719 0.013172484934329987 -0.0031349998898804188
  endloop
 endfacet
 facet normal 0 1 0
  outer loop
   vertex 0.024998573586344719 0.013172484934329987 -4.3368086899420177e-19
   vertex 0.025980934500694275 0.013172484934329987 -0.001567500177770853
   vertex 0.024016203358769417 0.013172484934329987 -0.001567500177770853
  endloop
 endfacet
 facet normal -0 1 0
  outer loop
   vertex 0.026963293552398682 0.013172484934329987 -0.0031349998898804188
   vertex 0.025980934500694275 0.013172484934329987 -0.001567500177770853
   vertex 0.027945663779973984 0.013172484934329987 -0.001567500177770853
  endloop
 endfacet
 facet normal 0 1 0
  outer loop
   vertex 0.036786925047636032 0.013172484934329987 -4.3368086899420177e-19
   vertex 0.037769284099340439 0.013172484934329987 -0.001567500177770853
   vertex 0.03580455482006073 0.013172484934329987 -0.001567500177770853
  endloop
 endfacet
 facet normal -0 1 0
  outer loop
   vertex 0.038751643151044846 0.013172484934329987 -0.0031349998898804188
   vertex 0.037769284099340439 0.013172484934329987 -0.001567500177770853
   vertex 0.039734013378620148 0.013172484934329987 -0.0015674983151257038
  endloop
 endfacet
 facet normal 0 1 0
  outer loop
   vertex 0.036786925047636032 0.013172484934329987 -4.3368086899420177e-19
   vertex 0.037769284099340439 0.013172484934329987 0.0015674999449402094
   vertex 0.038751643151044846 0.013172484934329987 -4.3368086899420177e-19
  endloop
 endfacet
 facet normal 0 1 -0
  outer loop
   vertex 0.038751643151044846 0.013172484934329987 0.0031349998898804188
   vertex 0.037769284099340439 0.013172484934329987 0.0015674999449402094
   vertex 0.036786925047636032 0.013172484934329987 0.0031349998898804188
  endloop
 endfacet
 facet normal 0 1 -0
  outer loop
   vertex 0.036786925047636032 0.013172484934329987 -4.3368086899420177e-19
   vertex 0.03580455482006073 0.013172484934329987 -0.001567500177770853
   vertex 0.034822195768356323 0.013172484934329987 -4.3368086899420177e-19
  endloop
 endfacet
 facet normal 0 1 0
  outer loop
   vertex 0.034822195768356323 0.013172484934329987 -0.0031349998898804188
   vertex 0.03580455482006073 0.013172484934329987 -0.001567500177770853
   vertex 0.036786925047636032 0.013172484934329987 -0.0031349998898804188
  endloop
 endfacet
 facet normal -0 1 0
  outer loop
   vertex 0.036786925047636032 0.013172484934329987 -4.3368086899420177e-19
   vertex 0.03580455482006073 0.013172484934329987 0.0015674999449402094
   vertex 0.037769284099340439 0.013172484934329987 0.0015674999449402094
  endloop
 endfacet
 facet normal 0 1 0
  outer loop
   vertex 0.034822195768356323 0.013172484934329987 0.0031349998898804188
   vertex 0.03580455482006073 0.013172484934329987 0.0015674999449402094
   vertex 0.033839832991361618 0.013172484934329987 0.0015674999449402094
  endloop
 endfacet
 facet normal -0 1 0
  outer loop
   vertex 0.030892744660377502 0.013172484934329987 -0.0031349998898804188
   vertex 0.029910383746027946 0.013172484934329987 -0.001567500177770853
   vertex 0.031875103712081909 0.013172484934329987 -0.001567500177770853
  endloop
 endfacet
 facet normal 0 1 0
  outer loop
   vertex 0.02892802469432354 0.013172484934329987 -4.3368086899420177e-19
   vertex 0.029910383746027946 0.013172484934329987 -0.001567500177770853
   vertex 0.027945663779973984 0.013172484934329987 -0.001567500177770853
  endloop
 endfacet
 facet normal 0 1 0
  outer loop
   vertex 0.02892802469432354 0.013172484934329987 -4.3368086899420177e-19
   vertex 0.029910383746027946 0.013172484934329987 0.0015674999449402094
   vertex 0.030892744660377502 0.013172484934329987 -4.3368086899420177e-19
  endloop
 endfacet
 facet normal 0 1 -0
  outer loop
   vertex 0.030892744660377502 0.013172484934329987 0.0031349998898804188
   vertex 0.029910383746027946 0.013172484934329987 0.0015674999449402094
   vertex 0.02892802469432354 0.013172484934329987 0.0031349998898804188
  endloop
 endfacet
 facet normal 0 1 0
  outer loop
   vertex 0.032857473939657211 0.013172484934329987 -4.3368086899420177e-19
   vertex 0.033839832991361618 0.013172484934329987 -0.001567500177770853
   vertex 0.031875103712081909 0.013172484934329987 -0.001567500177770853
  endloop
 endfacet
 facet normal -0 1 0
  outer loop
   vertex 0.034822195768356323 0.013172484934329987 -0.0031349998898804188
   vertex 0.033839832991361618 0.013172484934329987 -0.001567500177770853
   vertex 0.03580455482006073 0.013172484934329987 -0.001567500177770853
  endloop
 endfacet
 facet normal 0 1 0
  outer loop
   vertex 0.030892744660377502 0.013172484934329987 -0.0031349998898804188
   vertex 0.031875103712081909 0.013172484934329987 -0.001567500177770853
   vertex 0.032857473939657211 0.013172484934329987 -0.0031349998898804188
  endloop
 endfacet
 facet normal 0 1 -0
  outer loop
   vertex 0.032857473939657211 0.013172484934329987 -4.3368086899420177e-19
   vertex 0.031875103712081909 0.013172484934329987 -0.001567500177770853
   vertex 0.030892744660377502 0.013172484934329987 -4.3368086899420177e-19
  endloop
 endfacet
 facet normal 0 1 -0
  outer loop
   vertex 0.034822195768356323 0.013172484934329987 0.0031349998898804188
   vertex 0.033839832991361618 0.013172484934329987 0.0015674999449402094
   vertex 0.032857473939657211 0.013172484934329987 0.0031349998898804188
  endloop
 endfacet
 facet normal 0 1 0
  outer loop
   vertex 0.032857473939657211 0.013172484934329987 -4.3368086899420177e-19
   vertex 0.033839832991361618 0.013172484934329987 0.0015674999449402094
   vertex 0.034822195768356323 0.013172484934329987 -4.3368086899420177e-19
  endloop
 endfacet
 facet normal -0 1 0
  outer loop
   vertex 0.032857473939657211 0.013172484934329987 -4.3368086899420177e-19
   vertex 0.031875103712081909 0.013172484934329987 0.0015674999449402094
   vertex 0.033839832991361618 0.013172484934329987 0.0015674999449402094
  endloop
 endfacet
 facet normal 0 1 0
  outer loop
   vertex 0.030892744660377502 0.013172484934329987 0.0031349998898804188
   vertex 0.031875103712081909 0.013172484934329987 0.0015674999449402094
   vertex 0.029910383746027946 0.013172484934329987 0.0015674999449402094
  endloop
 endfacet
 facet normal 0 1 0
  outer loop
   vertex 0.038751643151044846 0.013172484934329987 0.0031349998898804188
   vertex 0.039734013378620148 0.013172484934329987 0.001567500876262784
   vertex 0.037769284099340439 0.013172484934329987 0.0015674999449402094
  endloop
 endfacet
 facet normal -0 1 0
  outer loop
   vertex 0.040716376155614853 0.013172484934329987 6.9849193096160889e-09
   vertex 0.039734013378620148 0.013172484934329987 0.001567500876262784
   vertex 0.041698742657899857 0.013172484934329987 0.0015675248578190804
  endloop
 endfacet
 facet normal 0 1 -0
  outer loop
   vertex 0.040716376155614853 0.013172484934329987 6.9849193096160889e-09
   vertex 0.039734013378620148 0.013172484934329987 -0.0015674983151257038
   vertex 0.038751643151044846 0.013172484934329987 -4.3368086899420177e-19
  endloop
 endfacet
 facet normal 0 1 0
  outer loop
   vertex 0.038751643151044846 0.013172484934329987 -0.0031349998898804188
   vertex 0.039734013378620148 0.013172484934329987 -0.0015674983151257038
   vertex 0.040716372430324554 0.013172484934329987 -0.0031349998898804188
  endloop
 endfacet
 facet normal 0 1 -0
  outer loop
   vertex 0.02892802469432354 0.013172484934329987 -4.3368086899420177e-19
   vertex 0.027945663779973984 0.013172484934329987 -0.001567500177770853
   vertex 0.026963293552398682 0.013172484934329987 -4.3368086899420177e-19
  endloop
 endfacet
 facet normal 0 1 0
  outer loop
   vertex 0.026963293552398682 0.013172484934329987 -0.0031349998898804188
   vertex 0.027945663779973984 0.013172484934329987 -0.001567500177770853
   vertex 0.02892802469432354 0.013172484934329987 -0.0031349998898804188
  endloop
 endfacet
 facet normal -0 1 0
  outer loop
   vertex 0.02303384430706501 0.013172484934329987 -0.0031349998898804188
   vertex 0.022051483392715454 0.013172484934329987 -0.001567500177770853
   vertex 0.024016203358769417 0.013172484934329987 -0.001567500177770853
  endloop
 endfacet
 facet normal 0 1 0
  outer loop
   vertex 0.021069113165140152 0.013172484934329987 -4.3368086899420177e-19
   vertex 0.022051483392715454 0.013172484934329987 -0.001567500177770853
   vertex 0.020086754113435745 0.013172484934329987 -0.001567500177770853
  endloop
 endfacet
 facet normal 0 1 0
  outer loop
   vertex 0.026963293552398682 0.013172484934329987 0.0031349998898804188
   vertex 0.027945654466748238 0.013172484934329987 0.0015674999449402094
   vertex 0.025980934500694275 0.013172484934329987 0.0015674999449402094
  endloop
 endfacet
 facet normal -0 1 0
  outer loop
   vertex 0.02892802469432354 0.013172484934329987 -4.3368086899420177e-19
   vertex 0.027945654466748238 0.013172484934329987 0.0015674999449402094
   vertex 0.029910383746027946 0.013172484934329987 0.0015674999449402094
  endloop
 endfacet
 facet normal 0 1 0
  outer loop
   vertex 0.021069113165140152 0.013172484934329987 -4.3368086899420177e-19
   vertex 0.022051483392715454 0.013172484934329987 0.0015674999449402094
   vertex 0.02303384430706501 0.013172484934329987 -4.3368086899420177e-19
  endloop
 endfacet
 facet normal 0 1 -0
  outer loop
   vertex 0.02303384430706501 0.013172484934329987 0.0031349998898804188
   vertex 0.022051483392715454 0.013172484934329987 0.0015674999449402094
   vertex 0.021069113165140152 0.013172484934329987 0.0031349998898804188
  endloop
 endfacet
 facet normal 0 1 -0
  outer loop
   vertex 0.01321021281182766 0.013172484934329987 -4.3368086899420177e-19
   vertex 0.012227853760123253 0.013172484934329987 -0.001567500177770853
   vertex 0.011245494708418846 0.013172484934329987 -4.3368086899420177e-19
  endloop
 endfacet
 facet normal 0 1 0
  outer loop
   vertex 0.011245494708418846 0.013172484934329987 -0.0031349998898804188
   vertex 0.012227853760123253 0.013172484934329987 -0.001567500177770853
   vertex 0.01321021281182766 0.013172484934329987 -0.0031349998898804188
  endloop
 endfacet
 facet normal 0 1 0
  outer loop
   vertex 0.011245494708418846 0.013172484934329987 0.0031349998898804188
   vertex 0.012227853760123253 0.013172484934329987 0.0015674999449402094
   vertex 0.010263135656714439 0.013172484934329987 0.0015674969181418419
  endloop
 endfacet
 facet normal -0 1 0
  outer loop
   vertex 0.01321021281182766 0.013172484934329987 -4.3368086899420177e-19
   vertex 0.012227853760123253 0.013172484934329987 0.0015674999449402094
   vertex 0.014192583039402962 0.013172484934329987 0.0015674999449402094
  endloop
 endfacet
 facet normal -0 1 0
  outer loop
   vertex 0.015174942091107368 0.013172484934329987 -0.0031349998898804188
   vertex 0.014192583039402962 0.013172484934329987 -0.001567500177770853
   vertex 0.016157304868102074 0.013172484934329987 -0.001567500177770853
  endloop
 endfacet
 facet normal 0 1 0
  outer loop
   vertex 0.01321021281182766 0.013172484934329987 -4.3368086899420177e-19
   vertex 0.014192583039402962 0.013172484934329987 -0.001567500177770853
   vertex 0.012227853760123253 0.013172484934329987 -0.001567500177770853
  endloop
 endfacet
 facet normal 0 1 0
  outer loop
   vertex 0.01321021281182766 0.013172484934329987 -4.3368086899420177e-19
   vertex 0.014192583039402962 0.013172484934329987 0.0015674999449402094
   vertex 0.015174942091107368 0.013172484934329987 -4.3368086899420177e-19
  endloop
 endfacet
 facet normal 0 1 -0
  outer loop
   vertex 0.015174942091107368 0.013172484934329987 0.0031349998898804188
   vertex 0.014192583039402962 0.013172484934329987 0.0015674999449402094
   vertex 0.01321021281182766 0.013172484934329987 0.0031349998898804188
  endloop
 endfacet
 facet normal 0 1 -0
  outer loop
   vertex 0.021069113165140152 0.013172484934329987 -4.3368086899420177e-19
   vertex 0.020086754113435745 0.013172484934329987 -0.001567500177770853
   vertex 0.019104393199086189 0.013172484934329987 -4.3368086899420177e-19
  endloop
 endfacet
 facet normal 0 1 0
  outer loop
   vertex 0.019104393199086189 0.013172484934329987 -0.0031349998898804188
   vertex 0.020086754113435745 0.013172484934329987 -0.001567500177770853
   vertex 0.021069113165140152 0.013172484934329987 -0.0031349998898804188
  endloop
 endfacet
 facet normal 0 1 0
  outer loop
   vertex 0.019104393199086189 0.013172484934329987 0.0031349998898804188
   vertex 0.020086754113435745 0.013172484934329987 0.0015674999449402094
   vertex 0.018122034147381783 0.013172484934329987 0.0015674999449402094
  endloop
 endfacet
 facet normal -0 1 0
  outer loop
   vertex 0.021069113165140152 0.013172484934329987 -4.3368086899420177e-19
   vertex 0.020086754113435745 0.013172484934329987 0.0015674999449402094
   vertex 0.022051483392715454 0.013172484934329987 0.0015674999449402094
  endloop
 endfacet
 facet normal 0 1 0
  outer loop
   vertex 0.040716376155614853 0.013172484934329987 6.9849193096160889e-09
   vertex 0.041698742657899857 0.013172484934329987 0.0015675248578190804
   vertex 0.04268120601773262 0.013172484934329987 1.9790604710578918e-07
  endloop
 endfacet
 facet normal 0 1 -0
  outer loop
   vertex 0.042681097984313965 0.013172484934329987 0.0031349998898804188
   vertex 0.041698742657899857 0.013172484934329987 0.0015675248578190804
   vertex 0.040716372430324554 0.013172484934329987 0.0031349998898804188
  endloop
 endfacet
 facet normal -0 1 0
  outer loop
   vertex 0.042681097984313965 0.013172484934329987 -0.0031349998898804188
   vertex 0.041698742657899857 0.013172484934329987 -0.0015674810856580734
   vertex 0.043663762509822845 0.013172484934329987 -0.0015670182183384895
  endloop
 endfacet
 facet normal 0 1 0
  outer loop
   vertex 0.040716376155614853 0.013172484934329987 6.9849193096160889e-09
   vertex 0.041698742657899857 0.013172484934329987 -0.0015674810856580734
   vertex 0.039734013378620148 0.013172484934329987 -0.0015674983151257038
  endloop
 endfacet
 facet normal -0 1 0
  outer loop
   vertex 0.0092807132750749588 0.013172484934329987 -5.2154064178466797e-08
   vertex 0.0082982238382101059 0.013172484934329987 0.0015673708403483033
   vertex 0.010263135656714439 0.013172484934329987 0.0015674969181418419
  endloop
 endfacet
 facet normal 0 1 0
  outer loop
   vertex 0.0073160440661013126 0.013172484934329987 0.0031349998898804188
   vertex 0.0082982238382101059 0.013172484934329987 0.0015673708403483033
   vertex 0.0063289948739111423 0.013172484934329987 0.0015644648810848594
  endloop
 endfacet
 facet normal 0 1 -0
  outer loop
   vertex 0.0092807132750749588 0.013172484934329987 -5.2154064178466797e-08
   vertex 0.0082983728498220444 0.013172484934329987 -0.0015676910988986492
   vertex 0.0073136338032782078 0.013172484934329987 -1.8069986253976822e-06
  endloop
 endfacet
 facet normal 0 1 0
  outer loop
   vertex 0.0073160440661013126 0.013172484934329987 -0.0031349998898804188
   vertex 0.0082983728498220444 0.013172484934329987 -0.0015676910988986492
   vertex 0.0092807654291391373 0.013172484934329987 -0.0031349998898804188
  endloop
 endfacet
 facet normal -0 1 0
  outer loop
   vertex 0.046610545367002487 0.013172484934329987 -0.0031349998898804188
   vertex 0.04563392698764801 0.013172484934329987 -0.0015590940602123737
   vertex 0.047647077590227127 0.013172484934329987 -0.0014888648875057697
  endloop
 endfacet
 facet normal 0 1 0
  outer loop
   vertex 0.044648826122283936 0.013172484934329987 4.7108624130487442e-06
   vertex 0.04563392698764801 0.013172484934329987 -0.0015590940602123737
   vertex 0.043663762509822845 0.013172484934329987 -0.0015670182183384895
  endloop
 endfacet
 facet normal 0 1 0
  outer loop
   vertex 0.044648826122283936 0.013172484934329987 4.7108624130487442e-06
   vertex 0.045628815889358521 0.013172484934329987 0.00157979188952595
   vertex 0.046660497784614563 0.013172484934329987 7.2520924732089043e-05
  endloop
 endfacet
 facet normal 0 1 -0
  outer loop
   vertex 0.046610545367002487 0.013172484934329987 0.0031349998898804188
   vertex 0.045628815889358521 0.013172484934329987 0.00157979188952595
   vertex 0.044645823538303375 0.013172484934329987 0.0031349998898804188
  endloop
 endfacet
 facet normal 0 1 -0
  outer loop
   vertex 0.005297644529491663 0.013172484934329987 -3.8997037336230278e-05
   vertex 0.004461746197193861 0.013172484934329987 -0.0016250452026724815
   vertex 0.002669427078217268 0.013172484934329987 -0.00048305420204997063
  endloop
 endfacet
 facet normal 0 1 0
  outer loop
   vertex 0.0033865938894450665 0.013172484934329987 -0.0031349998898804188
   vertex 0.004461746197193861 0.013172484934329987 -0.0016250452026724815
   vertex 0.0053513147868216038 0.013172484934329987 -0.0031349998898804188
  endloop
 endfacet
 facet normal 0 1 0
  outer loop
   vertex 0.0033865938894450665 0.013172484934329987 0.0031349998898804188
   vertex 0.0043139043264091015 0.013172484934329987 0.0015343609265983105
   vertex 0.0024385969154536724 0.013172484934329987 0.001639542868360877
  endloop
 endfacet
 facet normal -0 1 0
  outer loop
   vertex 0.005297644529491663 0.013172484934329987 -3.8997037336230278e-05
   vertex 0.0043139043264091015 0.013172484934329987 0.0015343609265983105
   vertex 0.0063289948739111423 0.013172484934329987 0.0015644648810848594
  endloop
 endfacet
 facet normal 0 1 0
  outer loop
   vertex -0.0064370338805019855 0.013172484934329987 -0.0031349998898804188
   vertex -0.005641475785523653 0.013172484934329987 0.00094897882081568241
   vertex -0.0053530563600361347 0.013172484934329987 -0.00094403605908155441
  endloop
 endfacet
 facet normal -0 1 0
  outer loop
   vertex 0.050539996474981308 0.013172484934329987 -0.0031349998898804188
   vertex 0.04957396537065506 0.013172484934329987 -0.0014392691664397717
   vertex 0.051688592880964279 0.013172484934329987 -0.00070316903293132782
  endloop
 endfacet
 facet normal 0 1 0
  outer loop
   vertex 0.049123149365186691 0.013172484934329987 0.00065275887027382851
   vertex 0.04957396537065506 0.013172484934329987 -0.0014392691664397717
   vertex 0.047647077590227127 0.013172484934329987 -0.0014888648875057697
  endloop
 endfacet
 facet normal 0 1 0
  outer loop
   vertex -0.00054285360965877771 0.013172484934329987 0.0031349998898804188
   vertex 0.00055851356592029333 0.013172484934329987 0.0012778708478435874
   vertex -0.0015183953801169991 0.013172484934329987 0.00074530183337628841
  endloop
 endfacet
 facet normal -0 1 0
  outer loop
   vertex 0.002669427078217268 0.013172484934329987 -0.00048305420204997063
   vertex 0.00055851356592029333 0.013172484934329987 0.0012778708478435874
   vertex 0.0024385969154536724 0.013172484934329987 0.001639542868360877
  endloop
 endfacet
 facet normal 0 1 0
  outer loop
   vertex -0.0064370338805019855 0.013172484934329987 0.0031349998898804188
   vertex -0.0044723046012222767 0.013172484934329987 0.0031349998898804188
   vertex -0.005641475785523653 0.013172484934329987 0.00094897882081568241
  endloop
 endfacet
 facet normal -0 1 0
  outer loop
   vertex 0.056434173136949539 0.013172484934329987 -0.0031349998898804188
   vertex 0.055762659758329391 0.013172484934329987 0.00080306991003453732
   vertex 0.056434173136949539 0.013172484934329987 0.0031349998898804188
  endloop
 endfacet
 facet normal 0 1 -0
  outer loop
   vertex 0.054469447582960129 0.013172484934329987 0.0031349998898804188
   vertex 0.053588937968015671 0.013172484934329987 0.0008547930046916008
   vertex 0.052504725754261017 0.013172484934329987 0.0031349998898804188
  endloop
 endfacet
 facet normal 0 1 -0
  outer loop
   vertex 0.053576108068227768 0.013172484934329987 -0.0013875961303710938
   vertex 0.052504725754261017 0.013172484934329987 -0.0031349998898804188
   vertex 0.051688592880964279 0.013172484934329987 -0.00070316903293132782
  endloop
 endfacet
 facet normal -0 1 0
  outer loop
   vertex 0.054469447582960129 0.013172484934329987 -0.0031349998898804188
   vertex 0.053576108068227768 0.013172484934329987 -0.0013875961303710938
   vertex 0.055515777319669724 0.013172484934329987 -0.0011405069380998611
  endloop
 endfacet
 facet normal -0 1 0
  outer loop
   vertex -0.0015183953801169991 0.013172484934329987 0.00074530183337628841
   vertex -0.0036019650287926197 0.013172484934329987 0.00090322480536997318
   vertex -0.0025075864978134632 0.013172484934329987 0.0031349998898804188
  endloop
 endfacet
 facet normal 0 1 -0
  outer loop
   vertex -0.0036019650287926197 0.013172484934329987 0.00090322480536997318
   vertex -0.0053530563600361347 0.013172484934329987 -0.00094403605908155441
   vertex -0.005641475785523653 0.013172484934329987 0.00094897882081568241
  endloop
 endfacet
 facet normal 0 1 0
  outer loop
   vertex 0.049123149365186691 0.013172484934329987 0.00065275887027382851
   vertex 0.050539996474981308 0.013172484934329987 0.0031349998898804188
   vertex 0.051320340484380722 0.013172484934329987 0.0013366868952289224
  endloop
 endfacet
 facet normal -0 1 0
  outer loop
   vertex 0.0014218644937500358 0.013172484934329987 -0.0031349998898804188
   vertex -0.00055641366634517908 0.013172484934329987 -0.0012910063378512859
   vertex 0.002669427078217268 0.013172484934329987 -0.00048305420204997063
  endloop
 endfacet
 facet normal 0 1 0
  outer loop
   vertex -0.0053530563600361347 0.013172484934329987 -0.00094403605908155441
   vertex -0.0036019650287926197 0.013172484934329987 0.00090322480536997318
   vertex -0.0033866730518639088 0.013172484934329987 -0.0011632051318883896
  endloop
 endfacet
 facet normal 0 1 -0
  outer loop
   vertex 0.052504725754261017 0.013172484934329987 0.0031349998898804188
   vertex 0.051320340484380722 0.013172484934329987 0.0013366868952289224
   vertex 0.050539996474981308 0.013172484934329987 0.0031349998898804188
  endloop
 endfacet
endsolid
