solid Visualization Toolkit generated SLA File
 facet normal 0.86193417771371361 -0.5070201902182836 0
  outer loop
   vertex 0.018477503210306168 0.0052272840403020382 0.015575000084936619
   vertex 0.011993803083896637 -0.0057950043119490147 0.015575000084936619
   vertex 0.018477503210306168 0.0052272840403020382 -0.014424999244511127
  endloop
 endfacet
 facet normal 0.86193417771371361 -0.5070201902182836 0
  outer loop
   vertex 0.018477503210306168 0.0052272840403020382 -0.014424999244511127
   vertex 0.011993803083896637 -0.0057950043119490147 0.015575000084936619
   vertex 0.011993803083896637 -0.0057950043119490147 -0.014424999244511127
  endloop
 endfacet
 facet normal 0.50702023283858688 0.86193415264294115 0
  outer loop
   vertex 0.001477506011724472 0.015227285213768482 0.015575000084936619
   vertex 0.018477503210306168 0.0052272840403020382 0.015575000084936619
   vertex 0.001477506011724472 0.015227285213768482 -0.014424999244511127
  endloop
 endfacet
 facet normal 0.50702023283858688 0.86193415264294115 0
  outer loop
   vertex 0.001477506011724472 0.015227285213768482 -0.014424999244511127
   vertex 0.018477503210306168 0.0052272840403020382 0.015575000084936619
   vertex 0.018477503210306168 0.0052272840403020382 -0.014424999244511127
  endloop
 endfacet
 facet normal 0 1 0
  outer loop
   vertex -0.015522494912147522 0.015227285213768482 0.015575000084936619
   vertex 0.001477506011724472 0.015227285213768482 0.015575000084936619
   vertex -0.015522494912147522 0.015227285213768482 -0.014424999244511127
  endloop
 endfacet
 facet normal 0 1 0
  outer loop
   vertex -0.015522494912147522 0.015227285213768482 -0.014424999244511127
   vertex 0.001477506011724472 0.015227285213768482 0.015575000084936619
   vertex 0.001477506011724472 0.015227285213768482 -0.014424999244511127
  endloop
 endfacet
 facet normal -1 -0 0
  outer loop
   vertex -0.015522494912147522 0.0062272851355373859 0.015575000084936619
   vertex -0.015522494912147522 0.015227285213768482 0.015575000084936619
   vertex -0.015522494912147522 0.0062272851355373859 -0.014424999244511127
  endloop
 endfacet
 facet normal -1 0 -0
  outer loop
   vertex -0.015522494912147522 0.0062272851355373859 -0.014424999244511127
   vertex -0.015522494912147522 0.015227285213768482 0.015575000084936619
   vertex -0.015522494912147522 0.015227285213768482 -0.014424999244511127
  endloop
 endfacet
 facet normal -0.40036901162723387 -0.91635400066166128 0
  outer loop
   vertex 0.011993803083896637 -0.0057950043119490147 0.015575000084936619
   vertex -0.015522494912147522 0.0062272851355373859 0.015575000084936619
   vertex 0.011993803083896637 -0.0057950043119490147 -0.014424999244511127
  endloop
 endfacet
 facet normal -0.40036901162723387 -0.91635400066166128 -0
  outer loop
   vertex 0.011993803083896637 -0.0057950043119490147 -0.014424999244511127
   vertex -0.015522494912147522 0.0062272851355373859 0.015575000084936619
   vertex -0.015522494912147522 0.0062272851355373859 -0.014424999244511127
  endloop
 endfacet
 facet normal 0 0 -1
  outer loop
   vertex 0.011993803083896637 -0.0057950043119490147 -0.014424999244511127
   vertex -0.015522494912147522 0.0062272851355373859 -0.014424999244511127
   vertex 0.018477503210306168 0.0052272840403020382 -0.014424999244511127
  endloop
 endfacet
 facet normal 0 0 -1
  outer loop
   vertex 0.018477503210306168 0.0052272840403020382 -0.014424999244511127
   vertex -0.015522494912147522 0.0062272851355373859 -0.014424999244511127
   vertex 0.001477506011724472 0.015227285213768482 -0.014424999244511127
  endloop
 endfacet
 facet normal 0 0 -1
  outer loop
   vertex 0.001477506011724472 0.015227285213768482 -0.014424999244511127
   vertex -0.015522494912147522 0.0062272851355373859 -0.014424999244511127
   vertex -0.015522494912147522 0.015227285213768482 -0.014424999244511127
  endloop
 endfacet
 facet normal 0 0 1
  outer loop
   vertex 0.011993803083896637 -0.0057950043119490147 0.015575000084936619
   vertex 0.018477503210306168 0.0052272840403020382 0.015575000084936619
   vertex -0.015522494912147522 0.0062272851355373859 0.015575000084936619
  endloop
 endfacet
 facet normal 0 0 1
  outer loop
   vertex -0.015522494912147522 0.0062272851355373859 0.015575000084936619
   vertex 0.018477503210306168 0.0052272840403020382 0.015575000084936619
   vertex 0.001477506011724472 0.015227285213768482 0.015575000084936619
  endloop
 endfacet
 facet normal 0 0 1
  outer loop
   vertex -0.015522494912147522 0.0062272851355373859 0.015575000084936619
   vertex 0.001477506011724472 0.015227285213768482 0.015575000084936619
   vertex -0.015522494912147522 0.015227285213768482 0.015575000084936619
  endloop
 endfacet
endsolid
